<?xml version="1.0" encoding="utf-8"?>
<!-- Generator: Adobe Illustrator 23.0.2, SVG Export Plug-In . SVG Version: 6.00 Build 0)  -->
<svg version="1.1" id="_x2018_ëîé_x5F_1" xmlns="http://www.w3.org/2000/svg" xmlns:xlink="http://www.w3.org/1999/xlink"
	 x="0px" y="0px" viewBox="0 0 3000 2000" style="enable-background:new 0 0 3000 2000;" xml:space="preserve">
<style type="text/css">
	.st0{fill:#DEEBE9;}
	.st1{fill:#6F4975;}
	.st2{fill:#FFFFFF;}
	.st3{fill:#42428E;}
	.st4{fill:#F7B686;}
	.st5{fill:#2F1A31;}
	.st6{fill:#E28569;}
	.st7{fill:#EA9F75;}
	.st8{fill:#F0F7F6;}
	.st9{fill:#436E8E;}
	.st10{fill:#B2C9C6;}
	.st11{fill:#BCBF80;}
	.st12{fill:#629FB7;}
	.st13{fill:#CC6E58;}
	.st14{fill:#CFD3A3;}
	.st15{fill:#81B3CC;}
</style>
<g>
	<path class="st0" d="M2783.28,416.81v1159.64c0,182.77-142.95,310.83-323.94,336.67c-216.24,30.98-454.85,14.75-855.42-13.68
		c-244.51-17.36-736.14,11.4-981.54,13.68c-178.9,1.67-323.94-150.73-323.94-336.67V416.81c0-185.95,145.35-347.62,323.94-336.69
		c165.86,10.16,409.83,50.38,664.13,25.75c302.47-29.28,876.58-54.17,1172.82-25.75C2637.49,97.22,2783.28,230.86,2783.28,416.81z"
		/>
	<g>
		<polygon class="st1" points="1764.1,1219.05 1716.53,1252.99 1662.79,1143.33 		"/>
		<polygon class="st2" points="1772.08,1294.5 1662.79,1143.33 1764.1,1219.05 		"/>
		<polygon class="st1" points="1766.72,1184.32 1741.93,1202.48 1662.79,1143.33 		"/>
		<polygon class="st2" points="1662.79,1143.33 1750.01,1196.57 1835.95,1189.74 		"/>
	</g>
	<g>
		<polygon class="st1" points="1561.09,497.75 1518.85,538.15 1449.99,437.3 		"/>
		<polygon class="st2" points="1579.77,571.29 1449.99,437.3 1561.09,497.75 		"/>
		<polygon class="st1" points="1558.71,463.01 1536.78,484.52 1449.99,437.3 		"/>
		<polygon class="st2" points="1449.99,437.3 1543.92,477.51 1628.01,458.47 		"/>
	</g>
	<g>
		<g>
			<path class="st3" d="M2285.47,1147.75c-0.25-0.4-0.29-0.82-0.14-1.26c0.33-0.93,1.57-1.74,2.63-2.28
				c-1.51,0.14-3.57,0.19-4.38-0.62c-0.32-0.32-0.44-0.74-0.34-1.24c0.57-2.85,7.44-1.92,7.73-1.89l-0.07,0.48
				c-1.85-0.28-6.79-0.5-7.19,1.51c-0.07,0.34,0,0.6,0.2,0.8c0.95,0.94,4.45,0.47,5.72,0.23l0.13,0.46
				c-0.03,0.01-3.47,1.25-3.99,2.71c-0.1,0.29-0.07,0.57,0.1,0.85L2285.47,1147.75z"/>
		</g>
		<g>
			<path class="st3" d="M2370.96,1088.28l-0.27-0.39c1-0.82,3.59-3.23,3.46-4.56c-0.02-0.28-0.19-0.51-0.49-0.67
				c-0.19-0.1-0.4-0.15-0.61-0.15c-1.8,0-4.25,3.31-5.13,4.74l-0.41-0.25c0.14-0.22,3.08-4.97,5.54-4.97c0.29,0,0.56,0.07,0.84,0.21
				c0.45,0.24,0.7,0.6,0.74,1.05c0.11,1.14-1.23,2.71-2.31,3.78c1.09-0.48,2.51-0.92,3.44-0.58c0.43,0.16,0.73,0.46,0.88,0.9
				l-0.46,0.16c-0.1-0.3-0.3-0.5-0.59-0.61C2374.11,1086.43,2371,1088.27,2370.96,1088.28z"/>
		</g>
		<path class="st4" d="M2779.78,1625.31c-23.23,158.92-159.21,264.8-320.44,287.81c-13.07,1.87-26.18,3.57-39.36,5.1
			c-30.45-100.19-62.41-206.4-91.51-300.94v-0.01c-2.48-8.07-4.95-16.05-7.39-23.96c-18.79-60.78-36.17-115.88-50.86-160.23
			c-0.01-0.03-0.01-0.03-0.01-0.03c-19.68-59.32-61.86-131.42-73.18-145.21c-0.95-1.16-1.68-1.91-2.16-2.2
			c0,0,2.57-28.07-17.69-45.21c-44.05-37.28-40.54-110.33-37.61-136.83c0.68-6.26,1.35-9.92,1.35-9.92s14.83-10.49,15.16-10.72
			c2.11-1.49,7.85-11.63,15.84-27.3c3.89-7.62,8.3-16.53,13.1-26.4c2.37-4.87,4.83-9.97,7.36-15.26c0,0,0.01-0.01,0-0.01
			c17.58-36.66,38.68-82.3,57.06-122.5c8.93-19.54,17.22-37.8,24.14-53.09c5.19-11.45,9.6-21.25,12.96-28.69
			c4.45-9.91,7.04-15.67,7.04-15.67c0.3,0.01,2.27,1.1,5.66,3.28c31.24,20.23,182.82,134.23,250.74,356.49c-0.01,0.04,0,0.05,0,0.05
			c0,2.58,20.39,45.92,52.81,112.87c20.92,43.2,46.86,96.22,75.59,154.47c4.73,9.62,9.54,19.36,14.43,29.23v0.01
			C2720.31,1506.12,2749.9,1565.64,2779.78,1625.31z"/>
		<path class="st4" d="M2479.88,1011.07c-101.49-217.95-383.95-291.82-324.16-197.89c12.04,18.91,19.15,40.27,5.86,31.26
			c-30.46-20.66-62.58,42.19-70.76,53.28c-11.79,16-45.76,60.42-63.44,74.5c-44.74,35.63-89.34,63.25,18.74,136.85
			c35.73,24.33,47.51,77.32,80.59,127.23c62.79,94.71,182.02,40.92,182.02,40.92S2496.06,1045.82,2479.88,1011.07z"/>
		<path class="st4" d="M1757.55,1067.32L1757.55,1067.32c26.3,44.58,187.64-53.03,187.64-53.03c35.2-17.93,39.02-51.87,20.23-83.1
			C1938.88,887.09,1730.67,1013.8,1757.55,1067.32z"/>
		<path class="st4" d="M1853.68,1116.03L1853.68,1116.03c22.71,46.52,232.33-75.36,232.33-75.36c36.51-15.1,1.89-11.35-14.38-43.97
			C2048.65,950.65,1831.83,1063.9,1853.68,1116.03z"/>
		<path class="st4" d="M1959.22,1161.42L1959.22,1161.42c21.76,29.05,137-64.63,137-64.63c24.68-18.24,23.27-44.73,4.87-66.27
			C2075.12,1000.12,1931.78,1123.85,1959.22,1161.42z"/>
		<path class="st4" d="M1699.31,929.85L1699.31,929.85c16.71,48.99,194.5-13.87,194.5-13.87c38.11-10.42,48.73-42.88,36.66-77.27
			C1913.43,790.14,1683.85,871.99,1699.31,929.85z"/>
		<g>
			<g>
				<path class="st5" d="M1635.6,1068.28c-13,0-25.18-4.98-34.39-14.1c-9.28-9.19-14.31-21.39-14.17-34.37l3.23-310.58
					c0.13-12.97,5.42-25.08,14.88-34.09c9.65-9.17,22.43-14.01,35.69-13.42l588.87,22.87c26.44,1.02,46.95,22.29,46.68,48.43
					l-2.87,275.71c-0.27,26.12-21.21,47-47.66,47.54l-589.23,12C1636.3,1068.28,1635.95,1068.28,1635.6,1068.28z M1638.88,665.1
					c-11.76,0-22.83,4.41-31.36,12.52c-8.79,8.36-13.7,19.6-13.83,31.64l-3.23,310.58c-0.12,12.04,4.55,23.37,13.16,31.9
					c8.79,8.7,20.52,13.41,32.94,13.1l589.23-12l0.04,1.71l-0.04-1.71c24.59-0.51,44.06-19.9,44.32-44.16l2.87-275.71
					c0.25-24.27-18.82-44.03-43.4-44.98l-588.87-22.87C1640.11,665.11,1639.49,665.1,1638.88,665.1z"/>
			</g>
			<path class="st6" d="M2300.19,706.36l-1.7,164.26l-0.66,63.19l-0.5,48.26c-0.26,25.02-20.63,45.34-45.98,45.85l-589.23,12.01
				c-26.46,0.53-48.12-20.62-47.86-46.73l0.46-43.82l0.65-63.19l2.13-203.58c0.27-26.11,22.36-46.85,48.79-45.81l588.87,22.88
				C2280.51,660.64,2300.46,681.33,2300.19,706.36z"/>
			<g>
				<path class="st2" d="M1791.77,705.19l-0.86,82.32c-0.07,7.79-6.6,14.1-14.5,14.03l-65.52-0.62l-4.78-0.04l-13.13-0.13
					c-7.89-0.08-14.29-6.51-14.2-14.29l0.44-42.33l0.05-4.72l0.22-21.17l0.05-4.72l0.1-9.38c0.07-7.79,6.6-14.1,14.5-14.03
					l9.49,0.09l4.78,0.04l28.71,0.27l4.78,0.05l23.33,0.22l4.78,0.04l0.01,0l7.55,0.08
					C1785.46,690.98,1791.85,697.41,1791.77,705.19z"/>
				<g>
					<path class="st5" d="M1776.53,802.11c-0.05,0-0.09,0-0.13,0l-83.42-0.79c-3.97-0.04-7.69-1.61-10.5-4.42
						c-2.8-2.82-4.32-6.53-4.27-10.44l0.86-82.32c0.08-8.07,6.77-14.6,14.94-14.6c0.04,0,0.09,0,0.14,0l83.42,0.78
						c3.97,0.04,7.7,1.62,10.5,4.43c2.8,2.82,4.32,6.53,4.27,10.44l-0.86,82.32C1791.39,795.59,1784.7,802.11,1776.53,802.11z
						 M1694,690.68c-7.54,0-13.72,6.01-13.79,13.47l-0.86,82.32c-0.04,3.61,1.36,7.03,3.94,9.62c2.58,2.6,6.03,4.05,9.7,4.09
						l83.42,0.79c0.04,0,0.08,0,0.12,0c7.54,0,13.73-6.02,13.8-13.47l0.86-82.32c0.04-3.61-1.36-7.03-3.94-9.62
						c-2.58-2.6-6.03-4.06-9.7-4.09l-83.42-0.78C1694.09,690.68,1694.05,690.68,1694,690.68z"/>
				</g>
				<g>
					<path class="st5" d="M1720.91,744.51c-0.28,0.01-0.56,0.01-0.84,0.01l-40.85-0.38l0.05-4.72l40.85,0.38
						c4.4,0.04,8.56-1.61,11.7-4.65c3.14-3.04,4.9-7.11,4.94-11.45l0.35-33.18l4.78,0.05l-0.35,33.18
						c-0.06,5.6-2.32,10.85-6.38,14.77C1731.32,742.25,1726.28,744.36,1720.91,744.51z"/>
				</g>
				<g>
					<path class="st5" d="M1770,690.82l-0.53,50.87c-0.07,6.71-2.78,12.99-7.64,17.7c-4.85,4.7-11.27,7.25-18.08,7.19l-17.94-0.16
						c-3.88-0.03-7.56,1.42-10.34,4.11c-2.78,2.68-4.34,6.29-4.37,10.12l-0.21,20.27l-4.78-0.04l0.2-20.28
						c0.05-5.1,2.11-9.87,5.81-13.45c3.7-3.58,8.57-5.51,13.75-5.47l17.94,0.17c5.52,0.04,10.73-2.02,14.68-5.84
						c3.94-3.82,6.15-8.92,6.21-14.37l0.53-50.85L1770,690.82z"/>
				</g>
				<g>
					<path class="st5" d="M1708.41,690.24l-0.14,13.06c-0.09,8.19-6.74,14.83-14.96,15.05c-0.2,0.01-0.4,0.01-0.6,0.01l-13.21-0.12
						l0.05-4.72l13.21,0.12c5.85,0.02,10.68-4.61,10.74-10.39l0.14-13.05L1708.41,690.24z"/>
				</g>
			</g>
			<g>
				<path class="st2" d="M2102.73,710.23l-108.84,1.57c-3,0.04-5.45-2.36-5.42-5.32l0.11-10.94c0.03-2.95,2.51-5.31,5.5-5.22
					l108.79,3.14c2.91,0.08,5.21,2.45,5.18,5.32l-0.06,6.23C2107.97,707.87,2105.63,710.19,2102.73,710.23z"/>
				<path class="st2" d="M2238.77,711.51l-108.84,1.57c-3,0.04-5.45-2.36-5.42-5.32l0.11-10.94c0.03-2.95,2.51-5.31,5.5-5.22
					l108.79,3.14c2.91,0.08,5.21,2.45,5.18,5.32l-0.06,6.23C2244.01,709.15,2241.67,711.47,2238.77,711.51z"/>
			</g>
			<g>
				<path class="st2" d="M1814.54,997.24l-145.78,3.89c-4.02,0.11-7.35-2.05-7.38-4.77l-0.09-10.06c-0.03-2.71,3.25-4.93,7.26-4.92
					l145.82,0.43c3.9,0.01,7.04,2.13,7.06,4.77l0.05,5.73C1821.51,994.96,1818.43,997.14,1814.54,997.24z"/>
			</g>
			<g>
				<path class="st2" d="M1760.06,928.69l-91.34,2.44c-2.52,0.07-4.61-1.28-4.62-2.99l-0.06-6.3c-0.02-1.7,2.03-3.09,4.55-3.08
					l91.36,0.27c2.44,0.01,4.41,1.34,4.43,2.99l0.03,3.59C1764.43,927.25,1762.5,928.62,1760.06,928.69z"/>
			</g>
			<g>
				<path class="st2" d="M1874.45,927.7l-91.34,2.44c-2.52,0.07-4.61-1.28-4.62-2.99l-0.06-6.3c-0.02-1.7,2.03-3.09,4.55-3.08
					l91.36,0.27c2.44,0.01,4.41,1.34,4.43,2.99l0.03,3.59C1878.82,926.27,1876.89,927.64,1874.45,927.7z"/>
			</g>
			<g>
				<path class="st2" d="M1702.53,853.45c-0.04-2.91-0.38-5.4-1.04-7.48c-0.66-2.08-1.57-3.78-2.73-5.11
					c-1.16-1.33-2.56-2.3-4.16-2.92c-1.61-0.61-3.39-0.91-5.34-0.89c-1.96,0.01-3.73,0.34-5.31,0.99c-1.59,0.65-2.96,1.65-4.1,3
					c-1.15,1.34-2.02,3.06-2.63,5.16c-0.61,2.09-0.9,4.58-0.87,7.49l0.06,6.74c0.03,2.9,0.37,5.4,1.02,7.48
					c0.66,2.08,1.57,3.78,2.73,5.13c1.16,1.34,2.56,2.32,4.16,2.92c1.62,0.62,3.39,0.92,5.35,0.9c1.95-0.01,3.72-0.34,5.33-0.99
					c1.59-0.65,2.96-1.65,4.1-3.01c1.13-1.35,2-3.08,2.61-5.18c0.61-2.09,0.91-4.59,0.87-7.5L1702.53,853.45z M1694.59,865.67
					c-0.23,1.19-0.57,2.16-1.01,2.9c-0.44,0.75-1,1.28-1.67,1.61c-0.67,0.32-1.44,0.49-2.29,0.49c-0.85,0.01-1.62-0.14-2.29-0.46
					c-0.68-0.32-1.25-0.84-1.72-1.57c-0.47-0.73-0.84-1.7-1.09-2.87c-0.27-1.19-0.39-2.66-0.42-4.39l-0.08-8.83
					c-0.01-1.72,0.09-3.18,0.32-4.35c0.23-1.16,0.57-2.11,1.02-2.83c0.46-0.72,1.01-1.25,1.68-1.58c0.66-0.32,1.42-0.49,2.27-0.49
					c0.85-0.01,1.62,0.14,2.29,0.46c0.68,0.32,1.25,0.82,1.73,1.54c0.48,0.71,0.85,1.66,1.09,2.82c0.25,1.16,0.39,2.62,0.4,4.34
					l0.08,8.83C1694.93,863.01,1694.81,864.48,1694.59,865.67z"/>
				<path class="st2" d="M1733.8,853.18c-0.03-2.91-0.37-5.4-1.03-7.49c-0.66-2.08-1.57-3.78-2.73-5.11
					c-1.16-1.33-2.56-2.3-4.18-2.91c-1.61-0.62-3.39-0.91-5.34-0.9c-1.95,0.01-3.72,0.35-5.31,1c-1.59,0.63-2.96,1.63-4.1,2.99
					c-1.14,1.35-2.01,3.08-2.63,5.16c-0.61,2.09-0.9,4.59-0.87,7.5l0.06,6.73c0.03,2.91,0.37,5.4,1.02,7.48
					c0.66,2.09,1.57,3.8,2.73,5.13c1.18,1.34,2.56,2.32,4.18,2.94c1.61,0.61,3.39,0.91,5.34,0.9c1.95-0.03,3.73-0.35,5.33-1
					c1.61-0.65,2.97-1.65,4.1-3.01c1.13-1.35,2-3.08,2.62-5.16c0.61-2.1,0.9-4.59,0.87-7.5L1733.8,853.18z M1725.87,865.39
					c-0.24,1.19-0.57,2.15-1.01,2.9c-0.46,0.73-1.01,1.27-1.68,1.59s-1.43,0.49-2.28,0.49c-0.86,0.01-1.62-0.14-2.3-0.46
					c-0.67-0.3-1.24-0.84-1.71-1.57c-0.47-0.72-0.84-1.68-1.1-2.87c-0.25-1.19-0.39-2.64-0.41-4.39l-0.09-8.83
					c-0.01-1.72,0.09-3.18,0.33-4.34c0.23-1.18,0.57-2.13,1.02-2.85c0.46-0.72,1.01-1.25,1.67-1.57c0.66-0.33,1.42-0.49,2.28-0.51
					c0.85,0,1.61,0.15,2.29,0.46c0.67,0.32,1.25,0.84,1.73,1.54c0.47,0.72,0.84,1.66,1.09,2.82c0.25,1.18,0.38,2.62,0.39,4.34
					l0.09,8.83C1726.2,862.73,1726.1,864.19,1725.87,865.39z"/>
				<path class="st2" d="M1765.07,852.89c-0.03-2.91-0.37-5.4-1.02-7.48c-0.66-2.09-1.57-3.78-2.73-5.11
					c-1.16-1.34-2.56-2.3-4.16-2.92c-1.62-0.62-3.39-0.91-5.35-0.9c-1.95,0.03-3.72,0.35-5.31,1c-1.58,0.65-2.95,1.65-4.09,2.99
					c-1.15,1.35-2.02,3.08-2.63,5.16c-0.61,2.09-0.9,4.59-0.87,7.5l0.06,6.73c0.03,2.91,0.37,5.4,1.02,7.48
					c0.66,2.09,1.57,3.8,2.73,5.14c0.15,0.16,0.3,0.33,0.46,0.49c1.08,1.08,2.3,1.89,3.71,2.43c1.62,0.62,3.39,0.91,5.35,0.9
					c1.95-0.03,3.72-0.35,5.33-1c1.59-0.65,2.96-1.64,4.09-3c1.14-1.37,2.01-3.09,2.62-5.18c0.53-1.81,0.81-3.94,0.86-6.38
					c0.01-0.37,0.01-0.75,0.01-1.13L1765.07,852.89z M1757.18,864.89c-0.01,0.06-0.03,0.14-0.04,0.2c-0.23,1.19-0.57,2.15-1.01,2.9
					c-0.44,0.73-1,1.28-1.67,1.59c-0.68,0.33-1.44,0.49-2.29,0.51c-0.85,0-1.62-0.15-2.29-0.46c-0.2-0.1-0.4-0.2-0.58-0.35
					c-0.43-0.29-0.81-0.7-1.14-1.21c-0.47-0.73-0.84-1.7-1.09-2.89c-0.27-1.19-0.4-2.64-0.42-4.39l-0.08-8.83
					c-0.03-1.72,0.09-3.16,0.32-4.34c0.23-1.18,0.57-2.13,1.02-2.85c0.46-0.72,1.01-1.24,1.67-1.57c0.67-0.33,1.43-0.49,2.28-0.51
					c0.85,0,1.62,0.15,2.29,0.47c0.68,0.3,1.25,0.82,1.73,1.53c0.48,0.72,0.84,1.66,1.09,2.83c0.25,1.16,0.38,2.61,0.4,4.33
					l0.08,8.85c0.01,1.63-0.08,3.02-0.28,4.18V864.89z"/>
				<path class="st2" d="M1796.36,852.59c-0.01-2.06-0.19-3.92-0.54-5.57c-0.13-0.67-0.29-1.3-0.48-1.91
					c-0.66-2.08-1.57-3.78-2.73-5.11c-1.18-1.33-2.56-2.3-4.18-2.92c-1.61-0.61-3.39-0.91-5.34-0.89c-1.95,0.01-3.72,0.34-5.31,0.99
					s-2.96,1.65-4.1,3c-1.14,1.34-2.01,3.06-2.63,5.15c-0.61,2.1-0.9,4.59-0.87,7.5l0.05,5.4l0.01,1.33
					c0.03,2.91,0.37,5.4,1.03,7.49c0.66,2.08,1.57,3.78,2.73,5.13c1.18,1.34,2.56,2.32,4.18,2.92c1.61,0.62,3.39,0.92,5.34,0.9
					c1.95-0.01,3.73-0.34,5.33-0.99c1.61-0.65,2.97-1.66,4.1-3.01c1.13-1.35,2-3.09,2.62-5.18c0.61-2.09,0.9-4.59,0.87-7.5
					L1796.36,852.59z M1788.41,864.81c-0.23,1.19-0.56,2.16-1,2.9c-0.46,0.75-1.01,1.28-1.68,1.61c-0.67,0.32-1.43,0.48-2.28,0.49
					c-0.86,0.01-1.62-0.14-2.3-0.46c-0.67-0.32-1.24-0.84-1.71-1.57c-0.47-0.73-0.84-1.7-1.1-2.87c-0.25-1.19-0.39-2.66-0.4-4.39
					l-0.06-5.86l-0.03-2.99c-0.01-1.72,0.09-3.16,0.33-4.34c0.23-1.16,0.57-2.11,1.03-2.83c0.46-0.73,1.01-1.25,1.67-1.58
					c0.66-0.32,1.42-0.49,2.28-0.49c0.85-0.01,1.61,0.14,2.29,0.46c0.67,0.32,1.25,0.82,1.73,1.54c0.47,0.71,0.84,1.66,1.09,2.82
					c0.16,0.78,0.28,1.68,0.34,2.72v0.01c0.03,0.51,0.05,1.04,0.05,1.61l0.09,8.83C1788.75,862.15,1788.65,863.62,1788.41,864.81z"
					/>
				<path class="st2" d="M1856.87,852.63c-0.03-2.91-0.37-5.4-1.03-7.49c-0.66-2.08-1.57-3.78-2.73-5.11s-2.56-2.29-4.16-2.91
					c-1.62-0.62-3.39-0.91-5.34-0.9c-1.96,0.03-3.73,0.35-5.33,1c-1.58,0.65-2.95,1.63-4.09,2.99c-1.15,1.35-2.02,3.08-2.63,5.16
					s-0.9,4.59-0.87,7.5l0.06,6.73c0.03,2.91,0.37,5.4,1.02,7.48c0.66,2.09,1.57,3.8,2.73,5.13c1.16,1.34,2.56,2.32,4.16,2.94
					c1.62,0.62,3.39,0.91,5.35,0.9c1.95-0.03,3.72-0.35,5.33-1c1.59-0.65,2.96-1.65,4.09-3c1.14-1.37,2.01-3.09,2.62-5.18
					c0.61-2.09,0.9-4.59,0.87-7.5L1856.87,852.63z M1848.93,864.84c-0.23,1.19-0.57,2.15-1.01,2.9c-0.44,0.73-1,1.27-1.67,1.59
					c-0.67,0.33-1.44,0.49-2.29,0.51c-0.85,0-1.62-0.15-2.29-0.47c-0.68-0.3-1.25-0.84-1.72-1.56c-0.47-0.73-0.84-1.7-1.09-2.89
					c-0.27-1.19-0.41-2.64-0.42-4.39l-0.08-8.83c-0.01-1.72,0.09-3.16,0.32-4.34s0.57-2.13,1.02-2.85c0.46-0.72,1.01-1.24,1.67-1.57
					c0.67-0.33,1.43-0.49,2.28-0.51c0.85,0,1.62,0.15,2.29,0.47c0.68,0.3,1.25,0.82,1.73,1.53c0.48,0.72,0.84,1.66,1.09,2.83
					c0.25,1.16,0.39,2.61,0.4,4.33l0.08,8.83C1849.26,862.19,1849.16,863.65,1848.93,864.84z"/>
				<path class="st2" d="M1888.15,852.34c-0.03-2.91-0.37-5.4-1.02-7.48c-0.66-2.09-1.57-3.78-2.73-5.11
					c-1.18-1.33-2.56-2.3-4.18-2.92c-1.61-0.61-3.39-0.91-5.34-0.9c-1.95,0.03-3.72,0.35-5.31,1s-2.96,1.65-4.1,2.99
					c-1.14,1.35-2.01,3.08-2.63,5.16c-0.61,2.1-0.9,4.59-0.87,7.5l0.06,6.73c0.03,2.91,0.37,5.4,1.02,7.49
					c0.66,2.08,1.57,3.78,2.73,5.13c1.18,1.33,2.56,2.32,4.18,2.92c1.61,0.62,3.39,0.91,5.34,0.9c1.95-0.01,3.73-0.35,5.33-1
					c1.61-0.63,2.97-1.65,4.1-3c1.13-1.35,2-3.09,2.62-5.18c0.61-2.09,0.9-4.59,0.87-7.5L1888.15,852.34z M1880.22,864.55
					c-0.24,1.19-0.57,2.16-1.01,2.9c-0.46,0.75-1.01,1.28-1.68,1.59c-0.67,0.33-1.43,0.49-2.28,0.51c-0.86,0.01-1.62-0.15-2.3-0.46
					c-0.67-0.32-1.24-0.84-1.71-1.57c-0.47-0.73-0.84-1.7-1.1-2.89c-0.25-1.18-0.39-2.64-0.4-4.38l-0.09-8.85
					c-0.01-1.72,0.09-3.16,0.33-4.34c0.23-1.18,0.57-2.11,1.02-2.85c0.46-0.72,1.01-1.24,1.67-1.57c0.66-0.33,1.42-0.49,2.28-0.49
					c0.85-0.01,1.61,0.14,2.29,0.46c0.67,0.32,1.25,0.82,1.73,1.54c0.47,0.71,0.84,1.65,1.09,2.82c0.25,1.16,0.38,2.61,0.39,4.33
					l0.09,8.85C1880.55,861.9,1880.44,863.36,1880.22,864.55z"/>
				<path class="st2" d="M1919.42,852.05c-0.03-2.91-0.37-5.4-1.03-7.48c-0.66-2.08-1.57-3.78-2.73-5.11
					c-1.16-1.33-2.56-2.3-4.16-2.91c-1.62-0.62-3.39-0.92-5.35-0.9c-1.95,0.01-3.72,0.34-5.31,0.99c-1.58,0.65-2.95,1.65-4.09,3
					c-1.15,1.34-2.02,3.06-2.63,5.16c-0.61,2.09-0.9,4.58-0.87,7.49l0.06,6.74c0.03,2.91,0.37,5.4,1.03,7.48s1.57,3.78,2.73,5.13
					c1.16,1.34,2.56,2.32,4.16,2.94c1.61,0.61,3.39,0.91,5.35,0.89c1.95-0.01,3.72-0.34,5.33-0.99c1.59-0.65,2.96-1.65,4.09-3.01
					c1.14-1.35,2.01-3.08,2.62-5.18c0.61-2.09,0.9-4.58,0.87-7.49L1919.42,852.05z M1911.49,864.26c-0.23,1.2-0.57,2.16-1.01,2.9
					c-0.44,0.75-1,1.28-1.67,1.61c-0.68,0.32-1.44,0.49-2.29,0.49c-0.85,0.01-1.62-0.14-2.29-0.46c-0.68-0.32-1.25-0.84-1.72-1.57
					c-0.47-0.73-0.84-1.7-1.09-2.87c-0.27-1.19-0.4-2.66-0.42-4.39l-0.08-8.83c-0.03-1.72,0.09-3.18,0.32-4.35
					c0.23-1.16,0.57-2.11,1.03-2.83c0.46-0.72,1.01-1.25,1.67-1.58c0.67-0.32,1.43-0.48,2.28-0.49c0.85-0.01,1.62,0.14,2.29,0.46
					c0.68,0.32,1.25,0.82,1.73,1.54c0.48,0.71,0.84,1.66,1.09,2.82c0.25,1.18,0.38,2.62,0.4,4.34l0.08,8.83
					C1911.81,861.62,1911.71,863.07,1911.49,864.26z"/>
				<path class="st2" d="M1950.7,851.77c-0.03-2.91-0.37-5.4-1.02-7.49c-0.66-2.08-1.57-3.78-2.73-5.11
					c-1.18-1.33-2.56-2.3-4.18-2.91c-1.61-0.62-3.39-0.91-5.34-0.9c-1.95,0.01-3.72,0.35-5.31,1c-0.76,0.3-1.47,0.7-2.13,1.15
					c-0.72,0.52-1.38,1.13-1.97,1.84c-1.14,1.35-2.01,3.08-2.63,5.16c-0.61,2.09-0.9,4.59-0.87,7.5l0.06,6.73
					c0.03,2.91,0.37,5.4,1.03,7.48c0.66,2.09,1.57,3.8,2.73,5.13c1.16,1.34,2.56,2.32,4.18,2.94c0.59,0.23,1.2,0.4,1.83,0.54
					c1.1,0.24,2.28,0.37,3.51,0.35c1.95-0.03,3.73-0.35,5.33-1c1.59-0.65,2.96-1.64,4.1-3c1.13-1.37,2-3.09,2.61-5.18
					c0.62-2.1,0.91-4.59,0.89-7.5L1950.7,851.77z M1942.76,863.98c-0.23,1.19-0.56,2.15-1.01,2.9c-0.44,0.73-1,1.27-1.67,1.59
					s-1.43,0.49-2.28,0.51c-0.86,0-1.62-0.15-2.3-0.47c-0.14-0.06-0.28-0.14-0.4-0.23c-0.51-0.3-0.95-0.76-1.32-1.34
					c-0.47-0.72-0.82-1.68-1.09-2.87c-0.25-1.19-0.39-2.64-0.4-4.39l-0.09-8.83c-0.01-1.72,0.09-3.16,0.32-4.34
					c0.05-0.23,0.09-0.44,0.15-0.65c0.22-0.89,0.51-1.62,0.87-2.2c0.46-0.72,1.02-1.25,1.68-1.57c0.66-0.33,1.42-0.49,2.27-0.51
					c0.86,0,1.62,0.15,2.3,0.46c0.67,0.32,1.25,0.84,1.72,1.54c0.48,0.72,0.85,1.66,1.1,2.82c0.24,1.18,0.38,2.62,0.39,4.34
					l0.09,8.83C1943.1,861.33,1942.98,862.79,1942.76,863.98z"/>
				<path class="st2" d="M2007.04,851.77c-0.03-2.91-0.37-5.4-1.02-7.49c-0.66-2.08-1.58-3.78-2.75-5.11
					c-1.16-1.33-2.56-2.3-4.16-2.91c-1.61-0.62-3.39-0.91-5.34-0.9c-1.96,0.01-3.73,0.35-5.32,1c-1.59,0.65-2.96,1.63-4.1,2.99
					c-1.14,1.35-2.02,3.08-2.63,5.16c-0.61,2.09-0.9,4.59-0.87,7.5l0.06,6.73c0.03,2.91,0.37,5.4,1.03,7.48
					c0.66,2.09,1.57,3.8,2.73,5.13c1.16,1.34,2.56,2.32,4.16,2.94c1.62,0.61,3.4,0.91,5.35,0.9c1.95-0.03,3.72-0.35,5.33-1
					c1.59-0.65,2.96-1.64,4.1-3c1.13-1.37,2-3.09,2.61-5.18c0.62-2.1,0.91-4.59,0.89-7.5L2007.04,851.77z M1999.09,863.98
					c-0.23,1.19-0.56,2.15-1.01,2.9c-0.44,0.73-1,1.27-1.67,1.59c-0.67,0.33-1.43,0.49-2.29,0.51c-0.85,0-1.61-0.15-2.29-0.47
					c-0.67-0.3-1.25-0.84-1.72-1.57c-0.47-0.72-0.82-1.68-1.09-2.87c-0.25-1.19-0.39-2.64-0.42-4.39l-0.08-8.83
					c-0.01-1.72,0.09-3.16,0.32-4.34c0.23-1.18,0.57-2.13,1.03-2.85c0.46-0.72,1.01-1.25,1.68-1.57c0.66-0.33,1.42-0.49,2.27-0.51
					c0.86,0,1.62,0.15,2.29,0.46c0.68,0.32,1.27,0.84,1.73,1.54c0.48,0.72,0.85,1.66,1.1,2.82c0.24,1.18,0.38,2.62,0.39,4.34
					l0.08,8.83C1999.43,861.33,1999.32,862.79,1999.09,863.98z"/>
				<path class="st2" d="M2038.31,851.48c-0.03-2.91-0.37-5.4-1.02-7.48c-0.66-2.09-1.57-3.78-2.73-5.11
					c-1.16-1.33-2.56-2.3-4.16-2.92c-1.62-0.61-3.4-0.91-5.35-0.9c-1.95,0.03-3.72,0.35-5.32,1c-1.59,0.65-2.96,1.65-4.1,2.99
					c-1.14,1.35-2.01,3.08-2.62,5.16c-0.62,2.1-0.91,4.59-0.89,7.5l0.06,6.73c0.03,2.91,0.37,5.4,1.03,7.49
					c0.66,2.08,1.57,3.78,2.75,5.13c1.16,1.33,2.56,2.32,4.16,2.92c1.61,0.62,3.39,0.91,5.34,0.9s3.73-0.35,5.33-1
					c1.61-0.65,2.97-1.65,4.1-3c1.14-1.37,2-3.09,2.62-5.18c0.61-2.09,0.9-4.59,0.87-7.5L2038.31,851.48z M2030.38,863.69
					c-0.23,1.19-0.57,2.15-1.01,2.9c-0.44,0.75-1.01,1.28-1.68,1.59c-0.67,0.33-1.43,0.49-2.28,0.51c-0.86,0-1.62-0.15-2.29-0.46
					c-0.68-0.32-1.25-0.84-1.72-1.57c-0.47-0.73-0.84-1.7-1.09-2.89c-0.27-1.18-0.4-2.64-0.42-4.38l-0.09-8.85
					c-0.01-1.72,0.1-3.16,0.33-4.34c0.23-1.18,0.57-2.13,1.03-2.85c0.46-0.72,1.01-1.24,1.67-1.57c0.67-0.33,1.42-0.49,2.28-0.49
					c0.85-0.01,1.61,0.14,2.29,0.46c0.67,0.3,1.25,0.82,1.73,1.54c0.47,0.71,0.84,1.65,1.09,2.82c0.25,1.16,0.38,2.61,0.39,4.33
					l0.09,8.85C2030.7,861.03,2030.6,862.5,2030.38,863.69z"/>
				<path class="st2" d="M2069.59,851.19c-0.04-2.91-0.38-5.4-1.04-7.48c-0.66-2.08-1.57-3.78-2.73-5.11
					c-1.16-1.33-2.56-2.3-4.16-2.92c-1.61-0.61-3.39-0.91-5.34-0.89c-1.96,0.01-3.73,0.34-5.31,0.99c-1.59,0.65-2.96,1.65-4.1,3
					c-1.14,1.34-2.02,3.06-2.63,5.16c-0.61,2.09-0.9,4.58-0.87,7.49l0.06,6.73c0.03,2.91,0.37,5.42,1.03,7.49
					c0.66,2.08,1.57,3.78,2.73,5.13c1.16,1.34,2.56,2.32,4.16,2.92c1.62,0.62,3.39,0.92,5.35,0.9c1.95-0.01,3.72-0.34,5.33-0.99
					c1.59-0.65,2.96-1.65,4.1-3.01c1.13-1.35,2-3.09,2.61-5.18s0.91-4.59,0.87-7.5L2069.59,851.19z M2061.64,863.4
					c-0.23,1.19-0.57,2.16-1.01,2.9c-0.44,0.75-1,1.28-1.67,1.61c-0.67,0.32-1.43,0.49-2.29,0.49c-0.85,0.01-1.61-0.14-2.29-0.46
					c-0.68-0.32-1.25-0.84-1.72-1.57c-0.47-0.73-0.84-1.7-1.09-2.87c-0.27-1.19-0.39-2.66-0.42-4.39l-0.08-8.85
					c-0.01-1.72,0.09-3.16,0.32-4.34c0.23-1.16,0.57-2.11,1.03-2.83c0.46-0.73,1.01-1.25,1.68-1.58c0.66-0.32,1.42-0.49,2.27-0.49
					c0.85-0.01,1.62,0.14,2.29,0.46c0.68,0.32,1.25,0.82,1.73,1.54c0.48,0.71,0.85,1.66,1.09,2.82c0.25,1.16,0.39,2.62,0.41,4.34
					l0.08,8.83C2061.99,860.74,2061.87,862.21,2061.64,863.4z"/>
				<path class="st2" d="M2100.86,850.91c-0.03-2.91-0.37-5.4-1.03-7.49c-0.66-2.08-1.57-3.78-2.73-5.11
					c-1.16-1.33-2.56-2.3-4.18-2.91c-1.61-0.62-3.39-0.91-5.34-0.9c-1.95,0.01-3.72,0.35-5.31,0.99c-1.59,0.65-2.96,1.65-4.1,3
					s-2.01,3.08-2.62,5.16c-0.62,2.09-0.91,4.59-0.89,7.5l0.06,6.73c0.03,2.91,0.37,5.4,1.02,7.48c0.66,2.09,1.57,3.8,2.73,5.13
					c1.18,1.34,2.56,2.32,4.18,2.94c1.61,0.61,3.39,0.91,5.34,0.9c1.95-0.03,3.73-0.35,5.33-1c1.61-0.65,2.97-1.65,4.1-3.01
					c1.14-1.35,2-3.08,2.62-5.16c0.61-2.1,0.9-4.59,0.87-7.5L2100.86,850.91z M2092.93,863.12c-0.24,1.19-0.57,2.15-1.01,2.9
					c-0.46,0.73-1.01,1.27-1.68,1.59c-0.67,0.33-1.43,0.49-2.28,0.49c-0.86,0.01-1.62-0.14-2.3-0.46c-0.67-0.32-1.24-0.84-1.71-1.57
					c-0.47-0.72-0.83-1.68-1.1-2.87c-0.25-1.19-0.39-2.64-0.41-4.39l-0.09-8.83c-0.01-1.72,0.1-3.18,0.33-4.34
					c0.23-1.18,0.57-2.13,1.03-2.85s1.01-1.25,1.67-1.57c0.66-0.33,1.42-0.49,2.28-0.51c0.85,0,1.61,0.15,2.29,0.46
					c0.67,0.32,1.25,0.84,1.73,1.54c0.47,0.72,0.83,1.66,1.09,2.82c0.25,1.18,0.38,2.62,0.39,4.34l0.09,8.83
					C2093.26,860.47,2093.15,861.92,2092.93,863.12z"/>
				<path class="st2" d="M2161.03,850.38c-0.03-2.61-0.3-4.87-0.84-6.81v-0.01c-0.05-0.23-0.13-0.44-0.19-0.66
					c-0.66-2.09-1.57-3.78-2.73-5.11c-1.16-1.33-2.56-2.3-4.16-2.92c-1.62-0.61-3.39-0.91-5.35-0.9c-1.95,0.03-3.72,0.35-5.31,1
					c-1.58,0.65-2.95,1.65-4.1,2.99c-1.14,1.35-2.01,3.08-2.62,5.16c-0.1,0.33-0.19,0.68-0.27,1.04c-0.43,1.87-0.65,4.02-0.61,6.47
					l0.05,6.73c0.04,2.91,0.38,5.4,1.04,7.49c0.66,2.08,1.57,3.78,2.73,5.13c1.16,1.33,2.56,2.32,4.16,2.92
					c1.61,0.62,3.39,0.91,5.34,0.9c1.96-0.01,3.73-0.35,5.33-0.99c1.61-0.65,2.97-1.66,4.1-3.01c1.14-1.35,2.01-3.09,2.62-5.18
					c0.61-2.09,0.9-4.59,0.87-7.5L2161.03,850.38z M2153.1,862.59c-0.23,1.19-0.57,2.16-1.01,2.9c-0.44,0.75-1,1.28-1.68,1.59
					c-0.67,0.33-1.43,0.49-2.28,0.51c-0.85,0.01-1.62-0.14-2.29-0.46c-0.68-0.32-1.25-0.84-1.72-1.57c-0.47-0.73-0.83-1.7-1.09-2.89
					c-0.27-1.18-0.41-2.64-0.42-4.38l-0.08-8.85c-0.03-1.72,0.09-3.16,0.32-4.34s0.57-2.11,1.03-2.85c0.46-0.72,1.01-1.24,1.67-1.57
					c0.16-0.09,0.34-0.15,0.52-0.22c0.53-0.19,1.13-0.28,1.76-0.28c0.42,0,0.81,0.03,1.19,0.1h0.03c0.39,0.08,0.73,0.19,1.08,0.35
					c0.68,0.32,1.25,0.82,1.73,1.54c0.48,0.71,0.83,1.66,1.09,2.82c0.25,1.16,0.38,2.61,0.41,4.33l0.08,8.85
					C2153.43,859.93,2153.33,861.4,2153.1,862.59z"/>
				<path class="st2" d="M2192.32,850.09c-0.03-2.91-0.37-5.4-1.02-7.48c-0.66-2.08-1.57-3.78-2.75-5.11
					c-1.16-1.33-2.54-2.3-4.16-2.91c-1.61-0.62-3.39-0.92-5.34-0.9c-1.96,0.01-3.72,0.34-5.32,0.99c-1.59,0.65-2.96,1.65-4.1,3
					c-0.51,0.61-0.97,1.28-1.38,2.04c-0.49,0.92-0.92,1.97-1.25,3.13c-0.33,1.13-0.56,2.35-0.7,3.72c-0.14,1.16-0.19,2.43-0.18,3.77
					l0.06,6.74c0.03,2.91,0.37,5.4,1.02,7.48c0.66,2.08,1.57,3.78,2.73,5.13c1.16,1.34,2.56,2.32,4.16,2.94
					c1.62,0.61,3.4,0.91,5.35,0.89c1.95-0.01,3.72-0.34,5.33-0.99c1.59-0.65,2.96-1.64,4.1-3.01c1.13-1.35,2-3.08,2.61-5.18
					c0.62-2.09,0.91-4.58,0.89-7.49L2192.32,850.09z M2184.37,862.3c-0.23,1.2-0.56,2.16-1.01,2.9c-0.44,0.75-1,1.28-1.67,1.61
					c-0.67,0.32-1.43,0.49-2.29,0.49c-0.85,0.01-1.61-0.14-2.29-0.46c-0.67-0.32-1.25-0.84-1.72-1.57
					c-0.47-0.73-0.82-1.68-1.09-2.87c-0.25-1.19-0.39-2.66-0.41-4.39l-0.09-8.83c-0.01-1.72,0.09-3.18,0.32-4.34
					c0.23-1.18,0.57-2.13,1.03-2.85c0.46-0.72,1.01-1.25,1.68-1.58c0.66-0.32,1.42-0.48,2.27-0.49c0.86-0.01,1.62,0.14,2.3,0.46
					c0.67,0.32,1.25,0.82,1.72,1.54c0.48,0.71,0.85,1.66,1.1,2.82c0.24,1.18,0.38,2.62,0.39,4.34l0.09,8.83
					C2184.71,859.66,2184.6,861.11,2184.37,862.3z"/>
				<path class="st2" d="M2223.58,849.81c-0.03-2.91-0.37-5.4-1.03-7.49c-0.66-2.08-1.57-3.78-2.73-5.11
					c-1.16-1.33-2.56-2.3-4.16-2.91c-1.62-0.62-3.4-0.91-5.35-0.9c-1.95,0.01-3.72,0.35-5.31,1c-1.59,0.65-2.95,1.63-4.1,2.99
					c-1.14,1.35-2.01,3.07-2.62,5.16c-0.62,2.09-0.91,4.59-0.89,7.5l0.06,6.73c0.03,2.91,0.38,5.4,1.04,7.48
					c0.66,2.09,1.57,3.8,2.73,5.13c1.16,1.34,2.56,2.32,4.16,2.94c1.61,0.61,3.39,0.91,5.34,0.9c1.96-0.03,3.73-0.35,5.33-1
					c1.61-0.65,2.97-1.65,4.1-3c1.14-1.37,2.01-3.09,2.62-5.18c0.61-2.1,0.9-4.59,0.87-7.5L2223.58,849.81z M2215.65,862.02
					c-0.23,1.19-0.57,2.15-1.01,2.9c-0.44,0.73-1.01,1.27-1.68,1.59s-1.43,0.49-2.28,0.51c-0.85,0-1.62-0.15-2.29-0.47
					c-0.68-0.3-1.25-0.84-1.72-1.57c-0.47-0.72-0.84-1.68-1.09-2.87c-0.27-1.19-0.41-2.64-0.42-4.39l-0.08-8.83
					c-0.03-1.72,0.09-3.16,0.32-4.34c0.23-1.18,0.57-2.13,1.03-2.85s1.01-1.25,1.67-1.57c0.67-0.33,1.42-0.49,2.28-0.51
					c0.85,0,1.61,0.15,2.29,0.46c0.68,0.32,1.25,0.84,1.73,1.54c0.47,0.72,0.83,1.66,1.09,2.82c0.25,1.18,0.38,2.62,0.4,4.34
					l0.08,8.83C2215.98,859.36,2215.88,860.83,2215.65,862.02z"/>
				<path class="st2" d="M2254.87,849.52c-0.03-2.91-0.38-5.4-1.03-7.48c-0.67-2.09-1.58-3.78-2.75-5.11s-2.56-2.3-4.16-2.92
					c-1.61-0.61-3.39-0.91-5.34-0.9c-1.96,0.03-3.73,0.35-5.31,1c-1.59,0.65-2.96,1.65-4.1,2.99c-1.14,1.35-2.02,3.08-2.63,5.16
					c-0.61,2.1-0.9,4.59-0.87,7.5l0.06,6.73c0.03,2.91,0.37,5.4,1.02,7.49c0.66,2.08,1.57,3.78,2.73,5.13
					c1.16,1.33,2.56,2.32,4.16,2.92c1.62,0.62,3.4,0.91,5.35,0.9c1.95-0.01,3.72-0.35,5.33-1c1.59-0.65,2.96-1.65,4.1-3
					c1.13-1.37,2-3.09,2.61-5.18c0.62-2.09,0.91-4.59,0.89-7.5L2254.87,849.52z M2246.92,861.73c-0.23,1.19-0.57,2.15-1.01,2.9
					c-0.44,0.75-1,1.28-1.67,1.59c-0.67,0.33-1.43,0.49-2.29,0.51c-0.85,0-1.61-0.15-2.29-0.46c-0.67-0.32-1.25-0.84-1.72-1.57
					c-0.47-0.73-0.82-1.7-1.09-2.89c-0.25-1.18-0.39-2.64-0.42-4.38l-0.08-8.85c-0.01-1.72,0.09-3.16,0.32-4.34
					c0.23-1.18,0.57-2.13,1.02-2.85c0.46-0.72,1.01-1.24,1.68-1.57c0.66-0.33,1.42-0.49,2.27-0.49c0.86-0.01,1.62,0.14,2.29,0.46
					c0.68,0.3,1.27,0.82,1.73,1.54c0.48,0.71,0.85,1.65,1.09,2.82c0.25,1.16,0.39,2.61,0.41,4.33l0.08,8.85
					C2247.26,859.07,2247.15,860.54,2246.92,861.73z"/>
			</g>
		</g>
		<g>
			<path class="st4" d="M2031.38,905.47c4.76,26.71,59.66,67.62,128,75.2c68.32,7.57,33.22,238.79,147.76,246.69
				c114.55,7.89,188-106.55,188-106.55s-24.54-153.35-114.22-201.87c-69.99-37.89-186.43-24.91-253.04-29.84
				c-3.7-0.28-7.31-0.55-10.81-0.82c-39.12-3.03-65.77-5.55-78.17,0.24C2032.43,891.53,2029.83,896.81,2031.38,905.47z"/>
			<g>
				<path class="st7" d="M2369.51,1199.28c-32.82,0-90.07-7.1-129.98-51.1c-31.48-34.71-45.72-116.93-46.31-120.41
					c-0.4-2.38,1.2-4.64,3.58-5.04c2.42-0.36,4.64,1.2,5.04,3.58c0.14,0.83,14.4,83.19,44.17,116.01
					c54.55,60.14,146.89,46.89,147.8,46.73c2.42-0.29,4.62,1.27,4.98,3.66s-1.28,4.62-3.66,4.98
					C2393.9,1197.87,2384.13,1199.28,2369.51,1199.28z"/>
			</g>
			<path class="st7" d="M2038.9,888.53c-7.81,10.09,12.12,22.86,41.05,23.47c19.98,0.42,23.34-24.21,22.68-24.84
				C2063.51,884.12,2051.3,882.73,2038.9,888.53z"/>
		</g>
		<path class="st8" d="M2613.93,1269.82l87.11,176.61l-330.28,161.22l-54.4,12.38c0,0-53.27-177.66-45.43-189.63
			c7.84-11.97,116.19-27.56,197.62-75.76C2549.97,1306.43,2605.5,1250.42,2613.93,1269.82z"/>
		<path class="st9" d="M2783.28,1539.17c0,37.89,0.74,57.07-3.51,86.14c-23.23,158.92-159.21,264.8-320.44,287.81
			c-23.91,3.43-49.73,6.5-75.76,8.92c-8.23-32.84-67.22-267.84-67.22-302.01c-5.39-82.58,138.31-61.06,226.33-101.77
			c88.04-40.65,135.4-117.96,162.5-101.93C2712.73,1420.82,2743.22,1470.22,2783.28,1539.17z"/>
		<g>
			<path class="st0" d="M2637.81,1429.47c0.64-15.17-7.8-23.01-18.79-31.67c-8.54-6.73-15-14.98-17.55-25.74
				c-2.65-11.18,1.77-24.57-4.5-34.7c-5.35-8.64-15.38-13.57-21.49-21.75c-3.34-4.47,3.84-9.3,7.16-4.85
				c6.39,8.53,16.65,13.46,22.15,22.76c6.43,10.87,2.56,23.21,4.78,34.93c2.86,15.12,14.33,20.82,24.59,30.36
				c8.54,7.94,12.78,18.56,12.29,30.17C2646.22,1434.47,2637.58,1435.04,2637.81,1429.47L2637.81,1429.47z"/>
		</g>
		<g>
			<path class="st0" d="M2577.45,1464.15c4.89-22.66-27.51-32.95-36.66-49.86c-4.76-8.8-4.38-18.25-4.1-27.97
				c0.27-9.41-0.28-23.64-11.68-26.32c-5.41-1.27-3.7-9.76,1.74-8.47c8.75,2.06,14.27,8.67,16.9,17.1
				c4.08,13.04-1.8,27.55,4.03,40.06c9.81,21.06,44.43,28.55,38.24,57.21C2584.75,1471.32,2576.27,1469.61,2577.45,1464.15
				L2577.45,1464.15z"/>
		</g>
		<g>
			<path class="st0" d="M2508.99,1513.6c5.86-15.5,1.59-32.63-10.61-43.75c-9.44-8.61-21.79-14.44-27.87-26.24
				c-6.48-12.57-0.05-28.94-8.09-40.52c-7.23-10.41-22.49-13.3-32.06-21.24c-4.3-3.56,1.39-10.08,5.67-6.53
				c10.71,8.88,26.35,11.58,34.16,23.89c9.16,14.43,0.19,33.36,12.34,46.57c10.09,10.97,24.3,16.66,31.76,30.2
				c7.09,12.88,7.59,27.84,2.45,41.44C2514.78,1522.64,2507.04,1518.77,2508.99,1513.6L2508.99,1513.6z"/>
		</g>
		<g>
			<path class="st0" d="M2421,1531.83c0.77-7.45,0.97-15.02,0.14-22.49c-1.02-9.27-3.95-13.11-12.42-16.97
				c-9.56-4.35-18.04-8.84-23.78-18.08c-2.67-4.29-4.55-9.03-5.5-13.99c-1.54-8.07,0.12-16.55-7.52-21.87
				c-4.71-3.28-8.07-6.27-11.16-11.21c-3.62-5.79-6.8-14.73-15.12-13.96c-5.54,0.51-6.05-8.13-0.5-8.64
				c15.99-1.47,18.05,15.29,27.45,23.77c5.1,4.6,10.67,6.37,13.09,13.42c2.68,7.81,0.99,16.22,4.44,23.94
				c3.61,8.08,10.16,13.42,18.05,16.98c5.42,2.45,11.19,4.51,15.41,8.89c9.58,9.94,7.2,29.47,5.9,41.95
				C2428.9,1539.1,2420.43,1537.34,2421,1531.83L2421,1531.83z"/>
		</g>
		<g>
			<path class="st0" d="M2300.58,1422.06c-9.29,13.2,8.68,27.32,16.44,35.86c8.64,9.5,12.05,19.45,11.59,32.18
				c-0.51,14.03-3.26,26.68,6.08,38.65c7.3,9.35,16.2,16.5,17.91,28.93c0.76,5.51-7.88,5.99-8.64,0.5
				c-1.97-14.28-17.73-22.11-22.71-35.3c-4.88-12.93-0.17-26.54-1.36-39.82c-2.09-23.23-44.45-40.25-25.85-66.68
				C2297.25,1411.82,2303.75,1417.54,2300.58,1422.06L2300.58,1422.06z"/>
		</g>
		<g>
			<path class="st7" d="M2062.27,1125.8c15.62-8.22,27.08-21.87,32.72-38.56c1.31-3.87-4.8-5.53-6.1-1.68
				c-5.13,15.18-15.66,27.33-29.82,34.78C2055.48,1122.23,2058.67,1127.69,2062.27,1125.8L2062.27,1125.8z"/>
		</g>
		<g>
			<path class="st7" d="M2090.73,1113.38c-9.48,3.43-19.16,5.25-29.25,5.42c-4.07,0.07-4.08,6.4,0,6.33
				c10.63-0.18,20.92-2.03,30.93-5.65C2096.21,1118.1,2094.57,1111.99,2090.73,1113.38L2090.73,1113.38z"/>
		</g>
		<g>
			<path class="st7" d="M2298.25,896.33c38.96,14.59,73.8,41.45,108.62,63.79c3.44,2.2,6.61-3.27,3.19-5.46
				c-35.47-22.75-70.44-49.57-110.13-64.43C2296.11,888.8,2294.47,894.92,2298.25,896.33L2298.25,896.33z"/>
		</g>
		<g>
			<path class="st7" d="M2148.06,1264.97c30.84,30.45,73.59,27.21,113.46,21.95c3.98-0.53,4.03-6.86,0-6.33
				c-37.9,5-79.42,9.1-108.98-20.09C2149.64,1257.63,2145.16,1262.1,2148.06,1264.97L2148.06,1264.97z"/>
		</g>
	</g>
	<g>
		<path class="st2" d="M436.75,1219.7c0,0,17.72,62.01,69.6,58.21l143-58.21v-59.48L436.75,1219.7z"/>
		<path class="st10" d="M588.14,453.62c0,0-218.45,49.55-79.25,333.16s98.69,453.17-2.53,491.14l527.02-129.08L891.05,569.26
			l-143.12-106.3L588.14,453.62z"/>
		<path class="st5" d="M1470.92,1645.87l-399.03,109.68c-70.9,19.49-144.17-22.19-163.66-93.09L668.46,790.14
			c-19.49-70.9,22.19-144.17,93.09-163.66l399.03-109.68c70.9-19.49,144.17,22.19,163.66,93.09l239.77,872.32
			C1583.5,1553.11,1541.82,1626.38,1470.92,1645.87z"/>
		<path class="st1" d="M1550.08,1624.11l-399.03,109.68c-70.9,19.49-144.17-22.19-163.66-93.09L747.62,768.38
			c-19.49-70.9,22.19-144.17,93.09-163.66l399.03-109.68c70.9-19.49,144.17,22.19,163.66,93.09l239.77,872.32
			C1662.66,1531.35,1620.98,1604.63,1550.08,1624.11z"/>
		
			<rect x="881.85" y="747.23" transform="matrix(0.9642 -0.265 0.265 0.9642 -194.7612 333.9253)" class="st5" width="516.36" height="282.9"/>
		
			<rect x="869.65" y="750.58" transform="matrix(0.9642 -0.265 0.265 0.9642 -196.0866 330.8116)" class="st0" width="516.36" height="282.9"/>
		<g>
			<g>
				<path class="st5" d="M1078.15,1218.76l-92.18,25.34c-14.96,4.11-30.41-4.68-34.53-19.64l-8.52-31
					c-4.11-14.96,4.68-30.41,19.64-34.53l92.18-25.34c14.96-4.11,30.41,4.68,34.53,19.64l8.52,31
					C1101.9,1199.19,1093.1,1214.64,1078.15,1218.76z"/>
				<path class="st5" d="M1253.92,1170.44l-92.18,25.34c-14.96,4.11-30.41-4.68-34.53-19.64l-8.52-31
					c-4.11-14.96,4.68-30.41,19.64-34.53l92.18-25.34c14.96-4.11,30.41,4.68,34.53,19.64l8.52,31
					C1277.67,1150.87,1268.88,1166.33,1253.92,1170.44z"/>
				<path class="st5" d="M1429.7,1122.13l-92.18,25.34c-14.96,4.11-30.41-4.68-34.53-19.64l-8.52-31
					c-4.11-14.96,4.68-30.41,19.64-34.53l92.18-25.34c14.96-4.11,30.41,4.68,34.53,19.64l8.52,31
					C1453.45,1102.56,1444.66,1118.02,1429.7,1122.13z"/>
			</g>
			<g>
				<path class="st5" d="M1112.97,1345.46l-92.18,25.34c-14.96,4.11-30.41-4.68-34.53-19.64l-8.52-31
					c-4.11-14.96,4.68-30.41,19.64-34.53l92.18-25.34c14.96-4.11,30.41,4.68,34.53,19.64l8.52,31
					C1136.72,1325.89,1127.93,1341.35,1112.97,1345.46z"/>
				<path class="st5" d="M1288.75,1297.15l-92.18,25.34c-14.96,4.11-30.41-4.68-34.53-19.64l-8.52-31
					c-4.11-14.96,4.68-30.41,19.64-34.53l92.18-25.34c14.96-4.11,30.41,4.68,34.53,19.64l8.52,31
					C1312.5,1277.58,1303.71,1293.04,1288.75,1297.15z"/>
				<path class="st5" d="M1464.53,1248.83l-92.18,25.34c-14.96,4.11-30.41-4.68-34.53-19.64l-8.52-31
					c-4.11-14.96,4.68-30.41,19.64-34.53l92.18-25.34c14.96-4.11,30.41,4.68,34.53,19.64l8.52,31
					C1488.27,1229.27,1479.48,1244.72,1464.53,1248.83z"/>
			</g>
			<g>
				<path class="st5" d="M1147.8,1472.17l-92.18,25.34c-14.96,4.11-30.41-4.68-34.53-19.64l-8.52-31
					c-4.11-14.96,4.68-30.41,19.64-34.53l92.18-25.34c14.96-4.11,30.41,4.68,34.53,19.64l8.52,31
					C1171.55,1452.6,1162.76,1468.06,1147.8,1472.17z"/>
				<path class="st5" d="M1323.58,1423.86l-92.18,25.34c-14.96,4.11-30.41-4.68-34.53-19.64l-8.52-31
					c-4.11-14.96,4.68-30.41,19.64-34.53l92.18-25.34c14.96-4.11,30.41,4.68,34.53,19.64l8.52,31
					C1347.33,1404.29,1338.53,1419.75,1323.58,1423.86z"/>
				<path class="st5" d="M1499.35,1375.54l-92.18,25.34c-14.96,4.11-30.41-4.68-34.53-19.64l-8.52-31
					c-4.11-14.96,4.68-30.41,19.64-34.53l92.18-25.34c14.96-4.11,30.41,4.68,34.53,19.64l8.52,31
					C1523.1,1355.97,1514.31,1371.43,1499.35,1375.54z"/>
			</g>
			<g>
				<path class="st11" d="M1182.63,1598.88l-92.18,25.34c-14.96,4.11-30.41-4.68-34.53-19.64l-8.52-31
					c-4.11-14.96,4.68-30.41,19.64-34.53l92.18-25.34c14.96-4.11,30.41,4.68,34.53,19.64l8.52,31
					C1206.38,1579.31,1197.58,1594.77,1182.63,1598.88z"/>
				<path class="st12" d="M1358.4,1550.56l-92.18,25.34c-14.96,4.11-30.41-4.68-34.53-19.64l-8.52-31
					c-4.11-14.96,4.68-30.41,19.64-34.53l92.18-25.34c14.96-4.11,30.41,4.68,34.53,19.64l8.52,31
					C1382.15,1531,1373.36,1546.45,1358.4,1550.56z"/>
				<path class="st13" d="M1534.18,1502.25l-92.18,25.34c-14.96,4.11-30.41-4.68-34.53-19.64l-8.52-31
					c-4.11-14.96,4.68-30.41,19.64-34.53l92.18-25.34c14.96-4.11,30.41,4.68,34.53,19.64l8.52,31
					C1557.93,1482.68,1549.14,1498.14,1534.18,1502.25z"/>
			</g>
		</g>
		<g>
			<path class="st0" d="M1096.86,1213.61l-92.18,25.34c-14.96,4.11-30.41-4.68-34.53-19.64l-8.52-31
				c-4.11-14.96,4.68-30.41,19.64-34.53l92.18-25.34c14.96-4.11,30.41,4.68,34.53,19.64l8.52,31
				C1120.6,1194.04,1111.81,1209.5,1096.86,1213.61z"/>
			<path class="st0" d="M1272.63,1165.3l-92.18,25.34c-14.96,4.11-30.41-4.68-34.53-19.64l-8.52-31
				c-4.11-14.96,4.68-30.41,19.64-34.53l92.18-25.34c14.96-4.11,30.41,4.68,34.53,19.64l8.52,31
				C1296.38,1145.73,1287.59,1161.19,1272.63,1165.3z"/>
			<path class="st0" d="M1448.41,1116.98l-92.18,25.34c-14.96,4.11-30.41-4.68-34.53-19.64l-8.52-31
				c-4.11-14.96,4.68-30.41,19.64-34.53l92.18-25.34c14.96-4.11,30.41,4.68,34.53,19.64l8.52,31
				C1472.16,1097.42,1463.36,1112.87,1448.41,1116.98z"/>
		</g>
		<g>
			<path class="st0" d="M1131.68,1340.32l-92.18,25.34c-14.96,4.11-30.41-4.68-34.53-19.64l-8.52-31
				c-4.11-14.96,4.68-30.41,19.64-34.53l92.18-25.34c14.96-4.11,30.41,4.68,34.53,19.64l8.52,31
				C1155.43,1320.75,1146.64,1336.21,1131.68,1340.32z"/>
			<path class="st0" d="M1307.46,1292.01l-92.18,25.34c-14.96,4.11-30.41-4.68-34.53-19.64l-8.52-31
				c-4.11-14.96,4.68-30.41,19.64-34.53l92.18-25.34c14.96-4.11,30.41,4.68,34.53,19.64l8.52,31
				C1331.21,1272.44,1322.42,1287.9,1307.46,1292.01z"/>
			<path class="st0" d="M1483.24,1243.69l-92.18,25.34c-14.96,4.11-30.41-4.68-34.53-19.64l-8.52-31
				c-4.11-14.96,4.68-30.41,19.64-34.53l92.18-25.34c14.96-4.11,30.41,4.68,34.53,19.64l8.52,31
				C1506.98,1224.12,1498.19,1239.58,1483.24,1243.69z"/>
		</g>
		<g>
			<path class="st0" d="M1166.51,1467.03l-92.18,25.34c-14.96,4.11-30.41-4.68-34.53-19.64l-8.52-31
				c-4.11-14.96,4.68-30.41,19.64-34.53l92.18-25.34c14.96-4.11,30.41,4.68,34.53,19.64l8.52,31
				C1190.26,1447.46,1181.47,1462.92,1166.51,1467.03z"/>
			<path class="st0" d="M1342.29,1418.71l-92.18,25.34c-14.96,4.11-30.41-4.68-34.53-19.64l-8.52-31
				c-4.11-14.96,4.68-30.41,19.64-34.53l92.18-25.34c14.96-4.11,30.41,4.68,34.53,19.64l8.52,31
				C1366.04,1399.15,1357.24,1414.6,1342.29,1418.71z"/>
			<path class="st0" d="M1518.06,1370.4l-92.18,25.34c-14.96,4.11-30.41-4.68-34.53-19.64l-8.52-31
				c-4.11-14.96,4.68-30.41,19.64-34.53l92.18-25.34c14.96-4.11,30.41,4.68,34.53,19.64l8.52,31
				C1541.81,1350.83,1533.02,1366.29,1518.06,1370.4z"/>
		</g>
		<g>
			<path class="st14" d="M1201.34,1593.74l-92.18,25.34c-14.96,4.11-30.41-4.68-34.53-19.64l-8.52-31
				c-4.11-14.96,4.68-30.41,19.64-34.53l92.18-25.34c14.96-4.11,30.41,4.68,34.53,19.64l8.52,31
				C1225.09,1574.17,1216.29,1589.62,1201.34,1593.74z"/>
			<path class="st15" d="M1377.11,1545.42l-92.18,25.34c-14.96,4.11-30.41-4.68-34.53-19.64l-8.52-31
				c-4.11-14.96,4.68-30.41,19.64-34.53l92.18-25.34c14.96-4.11,30.41,4.68,34.53,19.64l8.52,31
				C1400.86,1525.85,1392.07,1541.31,1377.11,1545.42z"/>
			<path class="st6" d="M1552.89,1497.11l-92.18,25.34c-14.96,4.11-30.41-4.68-34.53-19.64l-8.52-31
				c-4.11-14.96,4.68-30.41,19.64-34.53l92.18-25.34c14.96-4.11,30.41,4.68,34.53,19.64l8.52,31
				C1576.64,1477.54,1567.85,1493,1552.89,1497.11z"/>
		</g>
		
			<rect x="1086.98" y="1603.85" transform="matrix(0.9642 -0.265 0.265 0.9642 -379.1607 411.5431)" class="st5" width="496.95" height="13.92"/>
		<path class="st2" d="M1317.83,639.26c0,0-41.57-280.54-214.8-301.42L588.14,453.62c0,0,185.45-2.22,245.52,318.72L1317.83,639.26z
			"/>
		<path class="st5" d="M1327.65,638.62L826.56,776.35c-1.71,0.47-3.48-0.54-3.95-2.25l0,0c-0.47-1.71,0.54-3.48,2.25-3.95
			l501.09-137.73c1.71-0.47,3.48,0.54,3.95,2.25l0,0C1330.37,636.38,1329.36,638.15,1327.65,638.62z"/>
		<g>
			<path class="st10" d="M846.84,669.09c122.15-40.19,245.25-77.12,369.34-110.81c3.93-1.07,2.26-7.17-1.68-6.1
				c-124.1,33.69-247.2,70.62-369.34,110.81C841.3,664.25,842.95,670.37,846.84,669.09L846.84,669.09z"/>
		</g>
		<g>
			<path class="st10" d="M849.59,688.73c50.02-16.48,100.56-30.97,151.71-43.51c3.95-0.97,2.28-7.07-1.68-6.1
				c-51.15,12.54-101.69,27.03-151.71,43.51C844.06,683.9,845.7,690.01,849.59,688.73L849.59,688.73z"/>
		</g>
		<g>
			<path class="st10" d="M828.69,608.47c103.78-35.76,208.69-67.54,314.54-96.58c3.92-1.08,2.26-7.18-1.68-6.1
				C1035.7,534.83,930.79,566.62,827,602.37C823.18,603.69,824.82,609.8,828.69,608.47L828.69,608.47z"/>
		</g>
		<g>
			<path class="st10" d="M815.04,580.19c45.97-16.42,91.82-32.69,138.78-46.11c3.91-1.12,2.25-7.22-1.68-6.1
				c-46.96,13.42-92.81,29.69-138.78,46.11C809.55,575.45,811.19,581.57,815.04,580.19L815.04,580.19z"/>
		</g>
		<g>
			<path class="st10" d="M985.96,522.69c63.6-19.99,127.56-38.47,192.38-54.09c3.96-0.95,2.28-7.06-1.68-6.1
				c-64.82,15.62-128.78,34.1-192.38,54.09C980.4,517.81,982.06,523.92,985.96,522.69L985.96,522.69z"/>
		</g>
		<g>
			<path class="st10" d="M798.72,545.01c91.53-31.28,184.52-57.67,278.37-81.05c3.95-0.98,2.28-7.09-1.68-6.1
				c-93.85,23.38-186.84,49.77-278.37,81.05C793.21,540.22,794.85,546.33,798.72,545.01L798.72,545.01z"/>
		</g>
		<g>
			<path class="st10" d="M749.44,485.77c61.53-22.08,124.2-39.28,188.39-51.71c3.99-0.77,2.3-6.87-1.68-6.1
				c-64.18,12.43-126.85,29.63-188.39,51.71C743.96,481.03,745.6,487.15,749.44,485.77L749.44,485.77z"/>
		</g>
		<g>
			<path class="st10" d="M967.54,425.04c47.29-15.15,95.06-28.45,143.37-39.92c3.96-0.94,2.28-7.04-1.68-6.1
				c-48.32,11.47-96.08,24.77-143.37,39.92C962,420.18,963.65,426.29,967.54,425.04L967.54,425.04z"/>
		</g>
		<g>
			<path class="st10" d="M726.99,467.79c15.56-5.71,31.4-10.39,47.56-14.07c3.97-0.9,2.29-7-1.68-6.1
				c-16.17,3.68-32,8.36-47.56,14.07C721.52,463.08,723.15,469.2,726.99,467.79L726.99,467.79z"/>
		</g>
	</g>
	<g>
		<g>
			<g>
				<path class="st5" d="M1127.3,995.43c-35.11,0-65.31-11.7-85.01-32.93c-17.72-19.09-25.88-45.3-23.6-75.79
					c4.51-60.43,49.14-105.05,108.54-108.52c28.56-1.68,54.47,7.48,74.6,26.47c21.67,20.44,34.1,50.38,34.1,82.15
					C1235.92,952.79,1193.28,995.43,1127.3,995.43z M1133.83,780.52c-2.14,0-4.29,0.06-6.46,0.19
					c-58.09,3.4-101.75,47.06-106.16,106.19l0,0c-2.22,29.77,5.7,55.32,22.93,73.88c18.94,20.41,49.25,32.11,83.16,32.11
					c64.45,0,106.09-41.64,106.09-106.09c0-31.07-12.13-60.34-33.3-80.31C1182,789.43,1159.2,780.52,1133.83,780.52z"/>
			</g>
		</g>
		<path class="st6" d="M1031.34,886.8c4.42-59.13,48.17-103.9,107.36-107.36c63.77-3.72,107.36,48.06,107.36,107.36
			c0,59.29-36,107.36-107.36,107.36C1079.41,994.16,1025.94,959.22,1031.34,886.8z"/>
		<g>
			<path class="st2" d="M1152.69,956.66c-2.89,0-5.73-1.11-7.88-3.17l-70.15-67.28c-4.54-4.35-4.69-11.56-0.34-16.1
				c4.36-4.54,11.56-4.7,16.1-0.34l54.25,52.02l15.74-105.78c0.93-6.21,6.65-10.47,12.94-9.59c6.22,0.93,10.51,6.72,9.59,12.94
				l-18.98,127.57c-0.63,4.21-3.55,7.72-7.58,9.1C1155.17,956.45,1153.93,956.66,1152.69,956.66z"/>
		</g>
	</g>
	<g>
		<path class="st5" d="M2137.57,1814.72c-0.52,0-1.05-0.01-1.58-0.01l0.02-1.27c0.75,0.02,1.47,0.07,2.19,0.01
			c0.87,0,1.73-0.01,2.58-0.02l0.01,1.27C2139.74,1814.71,2138.66,1814.74,2137.57,1814.72z M2131.14,1814.53
			c-1.57-0.11-3.18-0.22-4.81-0.36l0.11-1.25c1.62,0.14,3.21,0.25,4.77,0.34L2131.14,1814.53z M2145.63,1814.48l-0.08-1.27
			c1.61-0.1,3.21-0.24,4.75-0.42l0.14,1.25C2148.88,1814.22,2147.25,1814.36,2145.63,1814.48z M2121.54,1813.68
			c-1.56-0.19-3.16-0.4-4.77-0.63l0.18-1.25c1.61,0.23,3.19,0.43,4.75,0.63L2121.54,1813.68z M2155.22,1813.34l-0.22-1.25
			c1.6-0.28,3.17-0.6,4.65-0.96l0.3,1.23C2158.44,1812.73,2156.85,1813.06,2155.22,1813.34z M2112,1812.3
			c-1.56-0.25-3.14-0.54-4.74-0.85l0.24-1.25c1.59,0.31,3.16,0.6,4.71,0.85L2112,1812.3z M2164.62,1811.06l-0.38-1.2
			c1.53-0.48,3.03-1.02,4.47-1.61l0.48,1.18C2167.71,1810.01,2166.18,1810.56,2164.62,1811.06z M2102.55,1810.46
			c-1.66-0.36-3.19-0.75-4.69-1.17l0.35-1.23c1.47,0.42,2.99,0.81,4.62,1.17L2102.55,1810.46z M2093.25,1807.8
			c-1.51-0.55-3.02-1.15-4.49-1.79l0.5-1.15c1.44,0.63,2.93,1.21,4.42,1.74L2093.25,1807.8z M2173.61,1807.43l-0.58-1.13
			c1.47-0.75,2.86-1.53,4.13-2.33l0.67,1.08C2176.53,1805.86,2175.11,1806.67,2173.61,1807.43z M2084.4,1803.95
			c-1.38-0.7-2.77-1.47-4.23-2.36l0.65-1.08c1.44,0.87,2.8,1.62,4.16,2.31L2084.4,1803.95z M2181.81,1802.28l-0.77-1.01
			c1.31-1.01,2.48-2.02,3.59-3.08l0.88,0.91C2184.37,1800.2,2183.16,1801.23,2181.81,1802.28z M2076.11,1798.99
			c-1.24-0.84-2.51-1.78-3.9-2.85l0.78-1.01c1.36,1.07,2.61,1.98,3.83,2.8L2076.11,1798.99z M2188.87,1795.6l-0.96-0.82
			c1.02-1.18,2-2.44,2.92-3.73l1.03,0.72C2190.92,1793.11,2189.91,1794.39,2188.87,1795.6z M2068.48,1793.06
			c-1.24-1.09-2.43-2.19-3.55-3.27l0.88-0.91c1.11,1.07,2.28,2.15,3.5,3.22L2068.48,1793.06z M2194.46,1787.67l-1.09-0.63
			c0.77-1.35,1.51-2.77,2.18-4.22l1.15,0.53C2196,1784.85,2195.25,1786.3,2194.46,1787.67z M2061.56,1786.33
			c-1.08-1.18-2.15-2.37-3.2-3.61l0.96-0.82c1.04,1.21,2.1,2.4,3.17,3.56L2061.56,1786.33z M2055.31,1778.96
			c-0.98-1.25-1.94-2.55-2.89-3.86l1.03-0.75c0.93,1.31,1.88,2.58,2.85,3.84L2055.31,1778.96z M2198.55,1778.88l-1.19-0.43
			c0.53-1.45,1.04-2.97,1.49-4.52l1.21,0.36C2199.6,1775.87,2199.09,1777.42,2198.55,1778.88z M2049.7,1771.13
			c-0.88-1.33-1.74-2.68-2.58-4.08l1.08-0.65c0.84,1.37,1.7,2.72,2.56,4.03L2049.7,1771.13z M2201.26,1769.59l-1.24-0.26
			c0.34-1.55,0.64-3.11,0.89-4.68l1.25,0.19C2201.91,1766.43,2201.61,1768.03,2201.26,1769.59z M2044.66,1762.91
			c-0.78-1.39-1.55-2.8-2.31-4.23l1.12-0.6c0.76,1.43,1.52,2.84,2.3,4.21L2044.66,1762.91z M2202.81,1760.06l-1.26-0.14
			c0.16-1.49,0.3-3.09,0.4-4.75l1.26,0.07C2203.11,1756.92,2202.97,1758.54,2202.81,1760.06z M2040.16,1754.37
			c-0.7-1.42-1.39-2.87-2.08-4.34l1.15-0.53c0.67,1.47,1.36,2.9,2.06,4.32L2040.16,1754.37z M2203.4,1750.41l-1.26-0.02
			c0.02-0.79,0.02-1.59,0.03-2.37c0-0.81-0.01-1.6-0.02-2.4l1.26-0.02c0.02,0.81,0.02,1.62,0.02,2.43
			C2203.42,1748.83,2203.42,1749.62,2203.4,1750.41z M2036.12,1745.65c-0.63-1.45-1.25-2.95-1.86-4.45l1.18-0.48
			c0.6,1.5,1.22,2.97,1.85,4.42L2036.12,1745.65z M2201.97,1740.83c-0.08-1.58-0.19-3.16-0.33-4.79l1.26-0.1
			c0.14,1.62,0.25,3.23,0.33,4.81L2201.97,1740.83z M2032.5,1736.71c-0.57-1.49-1.13-2.99-1.68-4.51l1.19-0.43
			c0.55,1.51,1.11,3.02,1.67,4.48L2032.5,1736.71z M2201.16,1731.31c-0.17-1.58-0.38-3.15-0.6-4.75l1.25-0.17
			c0.22,1.6,0.43,3.2,0.61,4.77L2201.16,1731.31z M2029.23,1727.67c-0.5-1.5-1-3.04-1.5-4.58l1.2-0.38c0.49,1.54,0.99,3.05,1.5,4.56
			L2029.23,1727.67z M2199.84,1721.82c-0.26-1.56-0.53-3.14-0.83-4.72l1.24-0.24c0.31,1.61,0.58,3.19,0.84,4.75L2199.84,1721.82z
			 M2026.31,1718.47c-0.46-1.51-0.91-3.05-1.35-4.62l1.21-0.34c0.44,1.54,0.89,3.08,1.35,4.59L2026.31,1718.47z M2198.08,1712.41
			c-0.32-1.55-0.67-3.11-1.03-4.68l1.24-0.29c0.36,1.59,0.7,3.15,1.03,4.7L2198.08,1712.41z M2023.68,1709.21
			c-0.41-1.53-0.82-3.09-1.21-4.65l1.23-0.31c0.4,1.56,0.8,3.1,1.21,4.63L2023.68,1709.21z M2195.93,1703.07
			c-0.38-1.54-0.79-3.09-1.2-4.65l1.23-0.31c0.41,1.56,0.81,3.11,1.2,4.65L2195.93,1703.07z M2021.31,1699.91
			c-0.38-1.55-0.75-3.11-1.1-4.69l1.24-0.29c0.35,1.58,0.71,3.14,1.09,4.66L2021.31,1699.91z M2193.46,1693.8
			c-0.43-1.51-0.88-3.05-1.35-4.59l1.21-0.36c0.46,1.54,0.91,3.08,1.35,4.62L2193.46,1693.8z M2019.18,1690.52
			c-0.33-1.56-0.66-3.13-0.97-4.71l1.24-0.24c0.32,1.56,0.64,3.13,0.97,4.69L2019.18,1690.52z M2190.7,1684.61
			c-0.48-1.51-0.97-3.04-1.48-4.56l1.2-0.41c0.5,1.54,1,3.07,1.48,4.58L2190.7,1684.61z M2017.28,1681.09
			c-0.29-1.56-0.6-3.14-0.88-4.74l1.25-0.22c0.29,1.58,0.58,3.15,0.87,4.71L2017.28,1681.09z M2187.69,1675.51
			c-0.51-1.5-1.04-3.01-1.59-4.52l1.19-0.43c0.55,1.51,1.08,3.04,1.61,4.54L2187.69,1675.51z M2015.57,1671.62
			c-0.27-1.57-0.53-3.16-0.78-4.75l1.25-0.19c0.25,1.59,0.51,3.15,0.78,4.72L2015.57,1671.62z M2184.46,1666.47
			c-0.55-1.48-1.11-2.98-1.7-4.48l1.18-0.46c0.58,1.5,1.15,3.01,1.71,4.51L2184.46,1666.47z M2014.05,1662.12
			c-0.23-1.58-0.47-3.16-0.7-4.77l1.25-0.17c0.23,1.59,0.46,3.17,0.7,4.75L2014.05,1662.12z M2181.02,1657.52
			c-0.59-1.47-1.18-2.96-1.79-4.45l1.17-0.48c0.61,1.49,1.21,2.98,1.8,4.47L2181.02,1657.52z M2012.7,1652.61
			c-0.22-1.59-0.42-3.17-0.62-4.79l1.25-0.14c0.2,1.59,0.4,3.17,0.62,4.76L2012.7,1652.61z M2177.4,1648.64
			c-0.62-1.45-1.24-2.93-1.88-4.4l1.17-0.5c0.64,1.47,1.26,2.95,1.88,4.42L2177.4,1648.64z M2011.51,1643.05
			c-0.2-1.59-0.38-3.17-0.55-4.77l1.26-0.14c0.17,1.6,0.35,3.19,0.54,4.77L2011.51,1643.05z M2173.6,1639.81
			c-0.64-1.45-1.3-2.91-1.96-4.38l1.15-0.53c0.66,1.47,1.32,2.95,1.96,4.4L2173.6,1639.81z M2010.44,1633.49
			c-0.16-1.59-0.32-3.19-0.47-4.79l1.26-0.12c0.15,1.6,0.31,3.2,0.47,4.79L2010.44,1633.49z M2169.64,1631.06
			c-0.66-1.44-1.34-2.9-2.03-4.34l1.14-0.55c0.69,1.47,1.37,2.92,2.04,4.36L2169.64,1631.06z M2009.53,1623.94
			c-0.14-1.6-0.28-3.2-0.41-4.8l1.26-0.1c0.13,1.6,0.27,3.2,0.41,4.77L2009.53,1623.94z M2165.55,1622.38
			c-0.69-1.43-1.39-2.87-2.1-4.32l1.14-0.55c0.7,1.44,1.41,2.89,2.1,4.32L2165.55,1622.38z M2008.74,1614.33
			c-0.12-1.59-0.23-3.19-0.35-4.78l1.26-0.1c0.11,1.6,0.23,3.2,0.35,4.78L2008.74,1614.33z M2161.31,1613.79
			c-0.72-1.43-1.44-2.86-2.16-4.29l1.13-0.58c0.73,1.43,1.45,2.86,2.16,4.29L2161.31,1613.79z M2156.95,1605.23
			c-0.73-1.42-1.47-2.84-2.22-4.24l1.12-0.6c0.75,1.43,1.5,2.85,2.24,4.27L2156.95,1605.23z M2008.07,1604.74
			c-0.1-1.59-0.2-3.19-0.29-4.79l1.26-0.07c0.1,1.6,0.19,3.2,0.29,4.79L2008.07,1604.74z M2152.47,1596.74
			c-0.72-1.35-1.45-2.69-2.19-4.06l-0.1-0.17l1.12-0.6l0.09,0.17c0.74,1.37,1.47,2.72,2.19,4.06L2152.47,1596.74z M2007.52,1595.15
			c-0.08-1.59-0.16-3.19-0.24-4.8l1.26-0.07c0.08,1.61,0.16,3.21,0.24,4.8L2007.52,1595.15z M2147.87,1588.31l-2.34-4.2l1.11-0.63
			l2.34,4.2L2147.87,1588.31z M2007.07,1585.56c-0.07-1.6-0.13-3.2-0.19-4.81l1.26-0.05c0.06,1.61,0.13,3.21,0.19,4.81
			L2007.07,1585.56z M2143.17,1579.92c-0.79-1.38-1.59-2.78-2.39-4.16l1.09-0.63c0.8,1.38,1.6,2.78,2.39,4.16L2143.17,1579.92z
			 M2006.72,1575.96c-0.05-1.6-0.1-3.2-0.14-4.82l1.26-0.02c0.04,1.6,0.09,3.2,0.14,4.8L2006.72,1575.96z M2138.37,1571.61
			c-0.81-1.37-1.61-2.75-2.43-4.12l1.08-0.65c0.82,1.37,1.64,2.75,2.45,4.15L2138.37,1571.61z M2006.44,1566.35
			c-0.04-1.6-0.07-3.2-0.1-4.81l1.26-0.02c0.03,1.61,0.06,3.21,0.1,4.81L2006.44,1566.35z M2133.46,1563.37
			c-0.82-1.37-1.65-2.74-2.49-4.11l1.08-0.65c0.84,1.37,1.67,2.74,2.49,4.11L2133.46,1563.37z M2006.28,1556.73
			c-0.02-1.6-0.04-3.2-0.05-4.82h1.26c0.01,1.6,0.03,3.2,0.05,4.8L2006.28,1556.73z M2128.47,1555.17l-2.54-4.08l1.07-0.67
			l2.54,4.08L2128.47,1555.17z M2006.19,1547.11c-0.01-1.6-0.02-3.2-0.02-4.81h1.26c0,1.61,0.01,3.21,0.02,4.81H2006.19z
			 M2123.38,1547.01l-2.58-4.05l1.07-0.67l2.58,4.05L2123.38,1547.01z M2118.21,1538.92c-0.86-1.33-1.73-2.68-2.61-4.02l1.06-0.7
			c0.88,1.33,1.76,2.68,2.63,4.04L2118.21,1538.92z M2007.44,1537.5h-1.26c0.01-1.6,0.01-3.2,0.02-4.81h1.26
			C2007.45,1534.31,2007.45,1535.91,2007.44,1537.5z M2112.95,1530.89l-2.66-4l1.06-0.7l2.66,4L2112.95,1530.89z M2007.51,1527.91
			l-1.26-0.02c0.02-1.6,0.04-3.2,0.06-4.81l1.26,0.02C2007.54,1524.71,2007.53,1526.31,2007.51,1527.91z M2107.61,1522.91l-2.7-3.97
			l1.05-0.72l2.7,3.97L2107.61,1522.91z M2007.65,1518.3l-1.26-0.02l0.1-4.8l1.26,0.02L2007.65,1518.3z M2102.18,1514.99l-2.74-3.94
			l1.03-0.72l2.75,3.94L2102.18,1514.99z M2007.86,1508.69l-1.26-0.02c0.04-1.6,0.08-3.21,0.13-4.81l1.26,0.05
			C2007.95,1505.5,2007.91,1507.09,2007.86,1508.69z M2096.68,1507.11c-0.92-1.31-1.85-2.61-2.78-3.91l1.03-0.75
			c0.93,1.3,1.86,2.62,2.78,3.93L2096.68,1507.11z M2091.11,1499.3l-2.82-3.9l1.02-0.75l2.82,3.9L2091.11,1499.3z M2008.15,1499.09
			l-1.26-0.05c0.05-1.6,0.11-3.2,0.17-4.8l1.26,0.05C2008.25,1495.89,2008.2,1497.49,2008.15,1499.09z M2085.46,1491.54l-2.86-3.87
			l1.02-0.75l2.86,3.87L2085.46,1491.54z M2008.49,1489.51l-1.26-0.05l0.2-4.8l1.26,0.05L2008.49,1489.51z M2079.74,1483.83
			l-2.89-3.84l1.01-0.77l2.89,3.84L2079.74,1483.83z M2008.9,1479.9l-1.26-0.05c0.07-1.6,0.15-3.21,0.23-4.81l1.26,0.07
			C2009.05,1476.72,2008.97,1478.3,2008.9,1479.9z M2073.93,1476.18c-0.97-1.27-1.94-2.55-2.92-3.81l1-0.77
			c0.98,1.26,1.95,2.54,2.93,3.81L2073.93,1476.18z M2009.36,1470.32l-1.26-0.07c0.08-1.6,0.17-3.2,0.26-4.8l1.26,0.07
			C2009.53,1467.12,2009.44,1468.72,2009.36,1470.32z M2068.07,1468.58l-2.96-3.78l1-0.79l2.96,3.8L2068.07,1468.58z
			 M2062.14,1461.03l-3-3.76l0.99-0.79l3,3.76L2062.14,1461.03z M2009.9,1460.74l-1.26-0.07c0.09-1.6,0.19-3.2,0.28-4.8l1.26,0.07
			C2010.08,1457.54,2009.99,1459.14,2009.9,1460.74z M2056.12,1453.54l-3.02-3.71l0.99-0.79l3.02,3.71L2056.12,1453.54z
			 M2010.47,1451.13l-1.26-0.07l0.31-4.8l1.26,0.1L2010.47,1451.13z M2050.07,1446.13l-3.06-3.69l0.97-0.82l3.06,3.69
			L2050.07,1446.13z M2011.1,1441.56l-1.26-0.1l0.34-4.79l1.26,0.1L2011.1,1441.56z M2043.94,1438.76
			c-1.02-1.23-2.06-2.45-3.09-3.67l0.96-0.82c1.03,1.21,2.07,2.44,3.1,3.67L2043.94,1438.76z M2011.79,1431.98l-1.26-0.1l0.37-4.79
			l1.26,0.1L2011.79,1431.98z M2037.75,1431.46l-3.13-3.64l0.96-0.82l3.13,3.64L2037.75,1431.46z M2031.47,1424.21l-3.17-3.61
			l0.95-0.84l3.17,3.61L2031.47,1424.21z M2012.53,1422.41l-1.26-0.1l0.39-4.78l1.26,0.1L2012.53,1422.41z M2025.12,1417.01
			c-1.06-1.2-2.13-2.39-3.2-3.58l0.94-0.84c1.07,1.19,2.15,2.38,3.21,3.58L2025.12,1417.01z M2013.32,1412.84l-1.26-0.12l0.41-4.79
			l1.26,0.12L2013.32,1412.84z M2018.7,1409.85c-1.08-1.19-2.15-2.37-3.23-3.53l0.93-0.87c1.08,1.17,2.17,2.37,3.25,3.56
			L2018.7,1409.85z M2014.16,1403.26l-1.26-0.12l0.1-1.11l-0.79,0.73c-1.09-1.18-2.18-2.36-3.28-3.52l0.93-0.87
			c1.05,1.13,2.11,2.26,3.16,3.4l0.31-3.41l1.26,0.12L2014.16,1403.26z M2005.63,1395.73l-3.31-3.5l0.91-0.87l3.32,3.5
			L2005.63,1395.73z M2015.04,1393.7l-1.26-0.12l0.46-4.79l1.26,0.12L2015.04,1393.7z M1998.99,1388.75l-3.35-3.46l0.91-0.89
			l3.35,3.46L1998.99,1388.75z M2015.96,1384.14l-1.26-0.12l0.48-4.79l1.26,0.12L2015.96,1384.14z M1992.28,1381.85
			c-1.12-1.14-2.25-2.28-3.37-3.41l0.9-0.89c1.12,1.13,2.25,2.27,3.37,3.41L1992.28,1381.85z M1985.53,1375.02l-3.41-3.39l0.89-0.89
			l3.41,3.39L1985.53,1375.02z M2016.93,1374.6l-1.26-0.14l0.51-4.79l1.26,0.14L2016.93,1374.6z M1978.7,1368.28l-3.43-3.35
			l0.88-0.91l3.44,3.35L1978.7,1368.28z M2017.96,1365.04l-1.26-0.14l0.52-4.8l1.26,0.14L2017.96,1365.04z M1971.81,1361.6
			l-3.47-3.32l0.88-0.91l3.47,3.32L1971.81,1361.6z M2019.01,1355.47l-1.26-0.14c0.18-1.6,0.36-3.2,0.55-4.8l1.26,0.14
			C2019.38,1352.27,2019.19,1353.87,2019.01,1355.47z M1964.84,1354.98l-3.51-3.28l0.87-0.91l3.51,3.28L1964.84,1354.98z
			 M1957.8,1348.46c-1.18-1.08-2.36-2.16-3.55-3.23l0.85-0.94c1.18,1.07,2.37,2.15,3.55,3.23L1957.8,1348.46z M2020.11,1345.87
			l-1.26-0.14l0.57-4.79l1.26,0.14L2020.11,1345.87z M1950.7,1342c-1.19-1.07-2.39-2.14-3.58-3.2l0.84-0.94
			c1.2,1.06,2.39,2.13,3.58,3.2L1950.7,1342z M2021.26,1336.3l-1.26-0.14c0.19-1.59,0.39-3.19,0.59-4.79l1.25,0.14
			C2021.64,1333.12,2021.44,1334.72,2021.26,1336.3z M1943.51,1335.64c-1.21-1.06-2.42-2.12-3.62-3.16l0.83-0.96
			c1.21,1.05,2.42,2.1,3.62,3.16L1943.51,1335.64z M1936.24,1329.34c-1.21-1.05-2.43-2.08-3.65-3.11l0.82-0.96
			c1.22,1.03,2.44,2.07,3.67,3.11L1936.24,1329.34z M2022.43,1326.76l-1.25-0.17l0.61-4.79l1.25,0.17L2022.43,1326.76z
			 M1928.92,1323.15l-3.7-3.07l0.81-0.99l3.7,3.07L1928.92,1323.15z M2023.65,1317.2l-1.25-0.17l0.63-4.79l1.25,0.17L2023.65,1317.2
			z M1921.52,1317.04l-3.74-3.03l0.79-0.99l3.74,3.03L1921.52,1317.04z M1914.03,1311.02l-3.78-2.98l0.78-0.99l3.78,2.98
			L1914.03,1311.02z M2024.92,1307.64l-1.25-0.17c0.21-1.6,0.43-3.19,0.64-4.77l1.25,0.17
			C2025.34,1304.46,2025.13,1306.04,2024.92,1307.64z M1906.48,1305.12c-1.27-0.97-2.54-1.95-3.82-2.92l0.77-1.01
			c1.28,0.97,2.55,1.95,3.82,2.92L1906.48,1305.12z M1898.83,1299.3c-1.28-0.96-2.56-1.92-3.85-2.85l0.75-1.03
			c1.29,0.95,2.58,1.91,3.86,2.87L1898.83,1299.3z M2026.21,1298.11l-1.25-0.17c0.22-1.6,0.44-3.19,0.66-4.77l1.25,0.17
			C2026.65,1294.92,2026.43,1296.51,2026.21,1298.11z M1891.11,1293.59c-1.3-0.94-2.59-1.88-3.89-2.8l0.73-1.03
			c1.3,0.93,2.6,1.86,3.9,2.83L1891.11,1293.59z M2027.54,1288.57l-1.25-0.17c0.22-1.6,0.45-3.19,0.68-4.79l1.25,0.19
			C2028,1285.39,2027.77,1286.97,2027.54,1288.57z M1883.31,1288.01c-1.3-0.93-2.61-1.84-3.93-2.75l0.72-1.03
			c1.32,0.91,2.63,1.83,3.94,2.75L1883.31,1288.01z M1875.43,1282.53c-1.32-0.89-2.65-1.79-3.97-2.68l0.71-1.05
			c1.32,0.88,2.65,1.79,3.97,2.7L1875.43,1282.53z M2028.91,1279.05l-1.25-0.18c0.23-1.59,0.46-3.18,0.7-4.77l1.25,0.18
			C2029.37,1275.87,2029.14,1277.46,2028.91,1279.05z M1867.45,1277.18c-1.34-0.88-2.68-1.76-4.02-2.63l0.69-1.06
			c1.34,0.87,2.69,1.74,4.03,2.63L1867.45,1277.18z M1859.39,1271.96c-1.35-0.86-2.71-1.71-4.06-2.56l0.67-1.07
			c1.36,0.85,2.71,1.7,4.06,2.56L1859.39,1271.96z M2030.31,1269.52l-1.25-0.18c0.23-1.59,0.47-3.18,0.72-4.77l1.25,0.19
			C2030.78,1266.36,2030.54,1267.94,2030.31,1269.52z M1851.25,1266.9c-1.37-0.84-2.74-1.67-4.1-2.49l0.65-1.08
			c1.37,0.82,2.74,1.65,4.11,2.49L1851.25,1266.9z M1843.02,1261.96c-1.38-0.81-2.77-1.62-4.15-2.41l0.63-1.09
			c1.39,0.79,2.78,1.6,4.16,2.41L1843.02,1261.96z M2031.75,1260.01l-1.25-0.19l0.73-4.76l1.25,0.19L2031.75,1260.01z
			 M1834.69,1257.19c-1.39-0.79-2.8-1.56-4.2-2.33l0.61-1.11c1.4,0.77,2.8,1.55,4.21,2.33L1834.69,1257.19z M1826.28,1252.58
			c-1.41-0.76-2.83-1.5-4.24-2.24l0.59-1.12c1.41,0.74,2.83,1.48,4.26,2.24L1826.28,1252.58z M2033.23,1250.5l-1.25-0.19
			c0.24-1.58,0.49-3.17,0.75-4.76l1.25,0.2C2033.72,1247.33,2033.47,1248.92,2033.23,1250.5z M1817.77,1248.15
			c-1.42-0.73-2.86-1.44-4.29-2.15l0.57-1.13c1.43,0.71,2.86,1.42,4.3,2.15L1817.77,1248.15z M1809.17,1243.9
			c-1.44-0.7-2.89-1.38-4.33-2.06l0.54-1.14c1.44,0.67,2.89,1.36,4.35,2.06L1809.17,1243.9z M1800.48,1239.86
			c-1.46-0.66-2.92-1.31-4.38-1.95l0.5-1.15c1.47,0.64,2.93,1.29,4.39,1.95L1800.48,1239.86z M1791.69,1236.02l-0.25-0.11l0.49-1.17
			l0.25,0.11L1791.69,1236.02z"/>
	</g>
	<g>
		<path class="st5" d="M2212.83,607.9c0,0-1.62-0.54-4.62-1.61l0.42-1.19c2.99,1.06,4.6,1.59,4.6,1.59L2212.83,607.9z
			 M2203.65,604.66c-1.37-0.5-2.89-1.05-4.53-1.66l0.43-1.19c1.65,0.61,3.16,1.16,4.53,1.66L2203.65,604.66z M2194.6,601.29
			c-1.43-0.54-2.93-1.11-4.5-1.72l0.46-1.18c1.57,0.61,3.07,1.18,4.49,1.72L2194.6,601.29z M2185.61,597.84
			c-1.45-0.57-2.94-1.15-4.48-1.77l0.47-1.18c1.54,0.61,3.04,1.2,4.47,1.77L2185.61,597.84z M2176.66,594.27l-4.46-1.81l0.48-1.18
			l4.46,1.82L2176.66,594.27z M2167.75,590.62c-1.45-0.6-2.94-1.22-4.45-1.86l0.49-1.17c1.51,0.64,2.98,1.26,4.44,1.86
			L2167.75,590.62z M2158.88,586.89c-1.45-0.62-2.93-1.25-4.42-1.91l0.5-1.15c1.5,0.65,2.97,1.28,4.41,1.9L2158.88,586.89z
			 M2150.04,583.06l-4.4-1.94l0.51-1.15l4.39,1.94L2150.04,583.06z M2141.26,579.14c-1.44-0.65-2.91-1.31-4.38-1.98l0.53-1.15
			c1.47,0.67,2.93,1.33,4.37,1.98L2141.26,579.14z M2132.5,575.15c-1.44-0.67-2.9-1.35-4.36-2.04l0.54-1.14
			c1.46,0.69,2.91,1.36,4.35,2.03L2132.5,575.15z M2123.79,571.06c-1.44-0.68-2.89-1.37-4.35-2.07l0.55-1.14
			c1.45,0.7,2.9,1.39,4.33,2.07L2123.79,571.06z M2115.12,566.9c-1.43-0.7-2.87-1.41-4.32-2.12l0.56-1.13
			c1.44,0.72,2.88,1.41,4.31,2.11L2115.12,566.9z M2106.49,562.64c-1.42-0.71-2.86-1.43-4.3-2.16l0.58-1.13
			c1.43,0.73,2.86,1.45,4.29,2.16L2106.49,562.64z M2097.91,558.29c-1.42-0.73-2.84-1.47-4.28-2.21l0.59-1.12
			c1.42,0.75,2.85,1.47,4.27,2.2L2097.91,558.29z M2089.37,553.85c-1.41-0.75-2.83-1.5-4.25-2.25l0.6-1.12
			c1.41,0.76,2.83,1.51,4.24,2.25L2089.37,553.85z M2080.88,549.32l-4.22-2.3l0.6-1.11l4.22,2.29L2080.88,549.32z M2072.46,544.69
			c-1.39-0.78-2.8-1.56-4.2-2.34l0.63-1.11c1.39,0.79,2.79,1.57,4.18,2.34L2072.46,544.69z M2064.08,539.96
			c-1.39-0.79-2.78-1.59-4.17-2.4l0.64-1.09c1.39,0.81,2.77,1.61,4.16,2.4L2064.08,539.96z M2055.76,535.14l-4.14-2.45l0.65-1.09
			l4.12,2.45L2055.76,535.14z M1782.14,534.56c-1.57-0.01-3.15-0.02-4.74-0.03l-0.06-1.26c1.66,0.01,3.23,0.02,4.8,0.03V534.56z
			 M1786.94,534.54v-1.26c1.61-0.01,3.2-0.02,4.79-0.05l0.02,1.26C1790.16,534.52,1788.56,534.54,1786.94,534.54z M1772.52,534.46
			c-1.59-0.03-3.2-0.07-4.8-0.11l0.04-1.26c1.6,0.04,3.2,0.08,4.79,0.11L1772.52,534.46z M1796.55,534.4l-0.02-1.26
			c1.6-0.04,3.2-0.08,4.79-0.14l0.05,1.26C1799.77,534.32,1798.17,534.36,1796.55,534.4z M1762.91,534.2
			c-1.59-0.05-3.19-0.11-4.8-0.19l0.06-1.26c1.6,0.07,3.2,0.13,4.79,0.19L1762.91,534.2z M1806.18,534.07l-0.06-1.26
			c1.6-0.07,3.2-0.15,4.79-0.23l0.07,1.26C1809.38,533.92,1807.78,534,1806.18,534.07z M1753.3,533.79c-1.6-0.08-3.2-0.16-4.8-0.26
			l0.07-1.26c1.61,0.1,3.2,0.18,4.79,0.26L1753.3,533.79z M1815.78,533.56l-0.08-1.26c1.6-0.1,3.2-0.22,4.79-0.34l0.1,1.26
			C1818.99,533.34,1817.39,533.46,1815.78,533.56z M1743.7,533.25c-1.59-0.1-3.19-0.21-4.79-0.32l0.08-1.26
			c1.6,0.11,3.2,0.22,4.79,0.32L1743.7,533.25z M1825.36,532.83l-0.11-1.26c1.6-0.14,3.19-0.29,4.78-0.44l0.12,1.26
			C1828.57,532.54,1826.97,532.69,1825.36,532.83z M1734.11,532.57l-4.8-0.39l0.11-1.26l4.79,0.39L1734.11,532.57z M1834.95,531.89
			l-0.14-1.26c1.6-0.18,3.19-0.37,4.77-0.55l0.16,1.25C1838.14,531.53,1836.55,531.71,1834.95,531.89z M1724.53,531.76
			c-1.59-0.14-3.18-0.29-4.79-0.45l0.12-1.26c1.6,0.16,3.2,0.31,4.79,0.45L1724.53,531.76z M1714.96,530.82
			c-1.59-0.16-3.18-0.33-4.79-0.51l0.14-1.26c1.59,0.18,3.19,0.35,4.77,0.51L1714.96,530.82z M1844.5,530.7l-0.17-1.25
			c1.59-0.21,3.17-0.44,4.75-0.67l0.18,1.25C1847.68,530.26,1846.09,530.49,1844.5,530.7z M2047.48,530.21l-4.1-2.5l0.66-1.08
			l4.1,2.5L2047.48,530.21z M1705.41,529.78c-1.59-0.19-3.18-0.38-4.77-0.58l0.16-1.25c1.59,0.2,3.18,0.38,4.76,0.57L1705.41,529.78
			z M1854.01,529.29l-0.2-1.25c1.59-0.26,3.16-0.53,4.73-0.81l0.22,1.25C1857.18,528.76,1855.6,529.03,1854.01,529.29z
			 M1695.86,528.61l-0.31-0.04c-1.48-0.19-2.97-0.38-4.46-0.59l0.17-1.25c1.49,0.2,2.98,0.39,4.45,0.58l0.31,0.04L1695.86,528.61z
			 M1863.49,527.61l-0.24-1.24c1.57-0.31,3.14-0.63,4.7-0.95l0.25,1.24C1866.64,526.98,1865.08,527.3,1863.49,527.61z
			 M1686.33,527.34c-1.59-0.22-3.17-0.44-4.76-0.67l0.18-1.25c1.59,0.23,3.17,0.45,4.75,0.67L1686.33,527.34z M1676.82,525.97
			c-1.59-0.23-3.17-0.47-4.76-0.72l0.19-1.25c1.59,0.25,3.17,0.49,4.74,0.72L1676.82,525.97z M1872.91,525.64l-0.28-1.24
			c1.56-0.35,3.12-0.72,4.66-1.09l0.3,1.23C1876.04,524.91,1874.48,525.28,1872.91,525.64z M2039.3,525.17
			c-1.36-0.85-2.72-1.7-4.07-2.55l0.67-1.07c1.35,0.85,2.71,1.71,4.07,2.55L2039.3,525.17z M1667.32,524.49l-4.74-0.77l0.2-1.25
			l4.74,0.77L1667.32,524.49z M1882.26,523.35l-0.31-1.23c1.55-0.4,3.09-0.82,4.62-1.25l0.35,1.21
			C1885.37,522.53,1883.82,522.95,1882.26,523.35z M1657.83,522.93l-4.73-0.82l0.22-1.25l4.73,0.82L1657.83,522.93z M1648.37,521.27
			l-4.72-0.86l0.23-1.25l4.72,0.86L1648.37,521.27z M1891.54,520.75l-0.37-1.21c1.54-0.47,3.06-0.94,4.57-1.42l0.38,1.2
			C1894.61,519.8,1893.08,520.29,1891.54,520.75z M2031.17,520.02c-1.35-0.87-2.7-1.74-4.03-2.62l0.7-1.06
			c1.33,0.88,2.68,1.75,4.02,2.61L2031.17,520.02z M1638.92,519.52l-4.72-0.91l0.24-1.24l4.72,0.91L1638.92,519.52z M1900.69,517.79
			l-0.41-1.2c1.51-0.52,3.02-1.06,4.5-1.61l0.44,1.19C1903.73,516.72,1902.22,517.26,1900.69,517.79z M1629.47,517.68l-4.71-0.95
			l0.25-1.24l4.71,0.95L1629.47,517.68z M1620.06,515.77l-4.71-0.99l0.26-1.24l4.69,0.99L1620.06,515.77z M2023.13,514.77
			c-1.33-0.88-2.66-1.78-3.99-2.67l0.71-1.05c1.32,0.89,2.64,1.77,3.97,2.66L2023.13,514.77z M1909.73,514.44l-0.47-1.18
			c1.5-0.59,2.97-1.19,4.43-1.81l0.49,1.17C1912.71,513.24,1911.22,513.85,1909.73,514.44z M1610.67,513.77l-1.5-0.32l0.26-1.24
			l1.5,0.32L1610.67,513.77z M1918.59,510.69l-0.52-1.15c1.47-0.66,2.91-1.33,4.33-2.03l0.55,1.14
			C1921.53,509.35,1920.07,510.03,1918.59,510.69z M2015.19,509.4c-1.32-0.9-2.64-1.82-3.96-2.74l0.72-1.03
			c1.32,0.92,2.63,1.82,3.94,2.72L2015.19,509.4z M1927.27,506.51l-0.58-1.13c1.42-0.73,2.83-1.48,4.22-2.25l0.61,1.11
			C1930.12,505.02,1928.71,505.77,1927.27,506.51z M2007.3,503.9c-1.3-0.93-2.61-1.86-3.91-2.81l0.75-1.02
			c1.3,0.94,2.6,1.87,3.9,2.8L2007.3,503.9z M1935.71,501.85l-0.64-1.09c1.38-0.81,2.74-1.64,4.08-2.48l0.67,1.07
			C1938.47,500.2,1937.1,501.04,1935.71,501.85z M1999.49,498.26c-1.3-0.95-2.58-1.91-3.87-2.88l0.76-1.01
			c1.29,0.97,2.57,1.92,3.86,2.87L1999.49,498.26z M1943.87,496.72l-0.71-1.05c1.33-0.9,2.63-1.81,3.92-2.74l0.75,1.02
			C1946.52,494.89,1945.21,495.81,1943.87,496.72z M1991.77,492.48c-1.28-0.98-2.55-1.96-3.83-2.95l0.78-1
			c1.26,0.99,2.54,1.97,3.82,2.94L1991.77,492.48z M1951.67,491.06l-0.77-1c1.27-0.98,2.51-1.98,3.73-2.99l0.81,0.97
			C1954.2,489.07,1952.95,490.08,1951.67,491.06z M1984.16,486.55c-1.26-1-2.51-2-3.75-3.01l0.79-0.99c1.24,1,2.49,2.01,3.74,3.01
			L1984.16,486.55z M1959.09,484.88l-0.84-0.94c1.18-1.06,2.35-2.15,3.49-3.25l0.88,0.91
			C1961.46,482.71,1960.28,483.8,1959.09,484.88z M1976.68,480.5c-1.24-1.02-2.48-2.05-3.7-3.08l0.82-0.96
			c1.22,1.02,2.45,2.05,3.69,3.07L1976.68,480.5z M1966.02,478.19l-0.91-0.88c1.11-1.15,2.19-2.32,3.24-3.51l0.95,0.84
			C1968.24,475.85,1967.14,477.03,1966.02,478.19z M1969.33,474.3c-1.21-1.05-2.42-2.1-3.63-3.16l0.84-0.95
			c1.2,1.06,2.4,2.1,3.62,3.15L1969.33,474.3z M1972.43,470.98l-0.99-0.81c1.02-1.24,2-2.48,2.95-3.75l1.01,0.76
			C1974.44,468.46,1973.45,469.73,1972.43,470.98z M1962.1,467.93c-1.19-1.08-2.37-2.16-3.55-3.25l0.87-0.93
			c1.17,1.09,2.35,2.16,3.54,3.23L1962.1,467.93z M1978.22,463.29l-1.03-0.72c0.89-1.28,1.77-2.61,2.63-3.97l1.07,0.67
			C1980.02,460.64,1979.12,461.99,1978.22,463.29z M1955.04,461.41c-1.17-1.11-2.33-2.21-3.48-3.34l0.88-0.9
			c1.15,1.11,2.31,2.22,3.47,3.31L1955.04,461.41z M1983.38,455.14l-1.09-0.64c0.79-1.37,1.56-2.77,2.31-4.19l1.12,0.59
			C1984.97,452.33,1984.18,453.75,1983.38,455.14z M1948.12,454.71c-1.14-1.14-2.27-2.27-3.39-3.41l0.9-0.89
			c1.12,1.14,2.25,2.28,3.38,3.4L1948.12,454.71z M1941.38,447.84c-1.11-1.17-2.21-2.33-3.3-3.5l0.93-0.87
			c1.09,1.17,2.18,2.34,3.29,3.49L1941.38,447.84z M1987.86,446.58l-1.14-0.54c0.67-1.41,1.33-2.87,1.95-4.35l1.17,0.49
			C1989.21,443.68,1988.54,445.16,1987.86,446.58z M1934.84,440.78c-1.08-1.2-2.15-2.39-3.2-3.61l0.95-0.83
			c1.05,1.2,2.12,2.4,3.19,3.58L1934.84,440.78z M1991.63,437.7l-1.18-0.44c0.56-1.48,1.09-2.98,1.6-4.5l1.2,0.4
			C1992.73,434.7,1992.2,436.21,1991.63,437.7z M1928.51,433.53c-1.04-1.23-2.07-2.46-3.08-3.7l0.97-0.81
			c1.01,1.23,2.04,2.46,3.07,3.68L1928.51,433.53z M1994.7,428.57l-1.21-0.35c0.44-1.52,0.86-3.06,1.26-4.62l1.23,0.31
			C1995.57,425.49,1995.14,427.04,1994.7,428.57z M1922.41,426.08c-1-1.26-1.99-2.52-2.96-3.8l1.01-0.77
			c0.96,1.27,1.95,2.53,2.94,3.79L1922.41,426.08z M1997.06,419.22l-1.24-0.26c0.34-1.54,0.65-3.11,0.93-4.68l1.25,0.22
			C1997.71,416.08,1997.4,417.66,1997.06,419.22z M1916.56,418.44c-0.95-1.29-1.89-2.6-2.82-3.9l1.03-0.73
			c0.92,1.3,1.86,2.6,2.81,3.89L1916.56,418.44z M1910.99,410.58c-0.9-1.33-1.8-2.67-2.67-4l1.06-0.7c0.87,1.33,1.76,2.66,2.66,3.99
			L1910.99,410.58z M1998.76,409.72l-1.25-0.18c0.23-1.56,0.43-3.14,0.61-4.74l1.26,0.14
			C1999.19,406.56,1998.99,408.15,1998.76,409.72z M1905.74,402.52c-0.85-1.36-1.69-2.74-2.51-4.12l1.09-0.64
			c0.81,1.37,1.64,2.73,2.48,4.08L1905.74,402.52z M1999.85,400.15l-1.26-0.1c0.12-1.58,0.23-3.17,0.31-4.77l1.26,0.06
			C2000.08,396.96,1999.97,398.56,1999.85,400.15z M1900.81,394.24c-0.79-1.4-1.56-2.8-2.33-4.21l1.12-0.6
			c0.76,1.4,1.53,2.8,2.31,4.19L1900.81,394.24z M2000.34,390.52l-1.26-0.02c0.03-1.32,0.04-2.64,0.04-3.97v-0.82h1.26v0.82
			C2000.39,387.87,2000.37,389.21,2000.34,390.52z M1896.26,385.76c-0.73-1.44-1.44-2.88-2.13-4.32l1.14-0.54
			c0.69,1.43,1.39,2.86,2.12,4.29L1896.26,385.76z M1999.03,380.94c-0.05-1.59-0.12-3.18-0.21-4.79l1.26-0.07
			c0.09,1.62,0.16,3.22,0.21,4.82L1999.03,380.94z M1892.11,377.06c-0.66-1.47-1.3-2.95-1.92-4.43l1.17-0.49
			c0.62,1.48,1.25,2.95,1.91,4.41L1892.11,377.06z M1998.5,371.37c-0.13-1.58-0.27-3.17-0.44-4.77l1.26-0.13
			c0.17,1.61,0.31,3.21,0.44,4.8L1998.5,371.37z M1888.4,368.14c-0.58-1.5-1.14-3-1.68-4.51l1.19-0.42c0.54,1.5,1.09,2.99,1.67,4.48
			L1888.4,368.14z M1997.52,361.83c-0.2-1.56-0.41-3.14-0.65-4.74l1.25-0.18c0.23,1.6,0.45,3.19,0.65,4.77L1997.52,361.83z
			 M1885.17,359.09c-0.49-1.52-0.97-3.05-1.42-4.59l1.21-0.36c0.45,1.53,0.92,3.04,1.41,4.55L1885.17,359.09z M1996.14,352.35
			c-0.26-1.59-0.53-3.17-0.81-4.73l1.25-0.22c0.28,1.56,0.55,3.15,0.81,4.74L1996.14,352.35z M1882.44,349.86
			c-0.41-1.55-0.79-3.11-1.16-4.66l1.23-0.29c0.37,1.54,0.75,3.09,1.16,4.63L1882.44,349.86z M1994.47,342.91
			c-0.31-1.59-0.62-3.15-0.94-4.7l1.24-0.25c0.32,1.55,0.63,3.13,0.94,4.71L1994.47,342.91z M1880.25,340.5
			c-0.32-1.57-0.62-3.14-0.9-4.73l1.25-0.22c0.28,1.57,0.57,3.14,0.88,4.69L1880.25,340.5z M1992.52,333.52
			c-0.35-1.58-0.71-3.13-1.08-4.67l1.23-0.29c0.37,1.54,0.73,3.1,1.09,4.68L1992.52,333.52z M1878.62,330.99l0.63-0.07l-0.64-0.01
			c-0.23-1.62-0.43-3.16-0.61-4.69l1.26-0.14c0.17,1.52,0.37,3.05,0.59,4.59l0.03,0.17L1878.62,330.99z M1990.29,324.21
			c-0.41-1.57-0.82-3.11-1.24-4.63l1.21-0.34c0.43,1.52,0.84,3.07,1.25,4.64L1990.29,324.21z M1877.51,321.43
			c-0.14-1.62-0.26-3.22-0.37-4.8l1.26-0.08c0.1,1.57,0.22,3.17,0.37,4.78L1877.51,321.43z M1987.73,314.97
			c-0.46-1.55-0.93-3.08-1.41-4.57l1.2-0.38c0.48,1.51,0.96,3.04,1.42,4.6L1987.73,314.97z M1876.91,311.81
			c-0.05-1.64-0.08-3.24-0.08-4.83h1.26c0,1.57,0.03,3.17,0.08,4.78L1876.91,311.81z M1984.81,305.84c-0.52-1.53-1.05-3.03-1.6-4.5
			l1.19-0.44c0.55,1.48,1.08,3,1.61,4.54L1984.81,305.84z M1878.16,302.2l-1.26-0.04c0.05-1.64,0.13-3.25,0.23-4.82l1.26,0.08
			C1878.28,298.99,1878.2,300.58,1878.16,302.2z M1981.5,296.86c-0.6-1.51-1.2-2.98-1.81-4.42l1.17-0.49
			c0.61,1.45,1.23,2.94,1.82,4.46L1981.5,296.86z M1878.79,292.67l-1.26-0.13c0.17-1.63,0.37-3.23,0.6-4.79l1.25,0.18
			C1879.15,289.47,1878.96,291.05,1878.79,292.67z M1977.76,288.06c-0.67-1.47-1.35-2.92-2.04-4.32l1.13-0.57
			c0.7,1.42,1.39,2.87,2.07,4.36L1977.76,288.06z M1880.16,283.22l-1.24-0.24c0.3-1.59,0.64-3.19,1.02-4.72l1.23,0.3
			C1880.8,280.07,1880.46,281.64,1880.16,283.22z M1973.54,279.47c-0.76-1.43-1.53-2.83-2.31-4.18l1.09-0.63
			c0.79,1.37,1.56,2.78,2.33,4.22L1973.54,279.47z M1882.39,273.95l-1.21-0.36c0.46-1.57,0.97-3.12,1.51-4.6l1.19,0.43
			C1883.35,270.87,1882.85,272.4,1882.39,273.95z M1968.78,271.19c-0.87-1.38-1.73-2.72-2.61-4.01l1.05-0.71
			c0.89,1.3,1.77,2.65,2.63,4.05L1968.78,271.19z M1885.63,265l-1.17-0.5c0.66-1.52,1.36-2.99,2.09-4.38l1.12,0.59
			C1886.96,262.06,1886.28,263.5,1885.63,265z M1963.41,263.29c-0.99-1.32-1.98-2.58-2.94-3.76l0.97-0.81
			c0.98,1.19,1.98,2.47,2.98,3.81L1963.41,263.29z M1890.02,256.58l-1.07-0.67c0.85-1.37,1.78-2.72,2.75-4l1.01,0.76
			C1891.77,253.92,1890.86,255.24,1890.02,256.58z M1957.35,255.93c-1.08-1.17-2.19-2.33-3.31-3.43l0.89-0.9
			c1.14,1.11,2.27,2.28,3.36,3.47L1957.35,255.93z M1950.53,249.3c-1.26-1.08-2.52-2.07-3.72-2.96l0.75-1.02
			c1.23,0.91,2.51,1.92,3.79,3.02L1950.53,249.3z M1895.74,249.03l-0.93-0.85c1.1-1.2,2.27-2.34,3.49-3.39l0.83,0.95
			C1897.95,246.76,1896.81,247.87,1895.74,249.03z M1942.88,243.68c-1.35-0.84-2.74-1.61-4.15-2.3l0.57-1.13
			c1.44,0.71,2.87,1.5,4.25,2.36L1942.88,243.68z M1902.88,242.86l-0.71-1.05c1.36-0.91,2.78-1.74,4.21-2.46l0.57,1.13
			C1905.56,241.17,1904.19,241.97,1902.88,242.86z M1934.4,239.5c-1.51-0.55-3.02-1.02-4.51-1.39l0.3-1.23
			c1.54,0.37,3.1,0.85,4.65,1.42L1934.4,239.5z M1911.3,238.7l-0.4-1.2c1.56-0.51,3.15-0.91,4.74-1.19l0.22,1.25
			C1914.33,237.82,1912.8,238.21,1911.3,238.7z M1925.25,237.29c-1.59-0.18-3.19-0.25-4.71-0.2l-0.02-1.26
			c1.6-0.02,3.23,0.02,4.88,0.2L1925.25,237.29z"/>
	</g>
	<g>
		<path class="st2" d="M2290.28,592.96c5.6-16.86,8.58-34.06,9.02-51.81c0.1-4.07-6.22-4.07-6.33,0c-0.43,17.2-3.38,33.82-8.8,50.13
			C2282.89,595.15,2289,596.81,2290.28,592.96L2290.28,592.96z"/>
	</g>
	<g>
		<path class="st2" d="M2341.34,629.2c20.28-21.11,41.4-41.34,63.37-60.68c3.06-2.7-1.43-7.16-4.47-4.47
			c-21.97,19.34-43.09,39.57-63.37,60.68C2334.05,627.66,2338.51,632.14,2341.34,629.2L2341.34,629.2z"/>
	</g>
	<g>
		<path class="st2" d="M2365.9,694.87c13.37-3.83,26.74-7.66,40.1-11.49c3.91-1.12,2.25-7.23-1.68-6.1
			c-13.37,3.83-26.74,7.66-40.1,11.49C2360.31,689.89,2361.97,696,2365.9,694.87L2365.9,694.87z"/>
	</g>
</g>
</svg>
